<svg xmlns="http://www.w3.org/2000/svg" xmlns:xlink="http://www.w3.org/1999/xlink" width="500" zoomAndPan="magnify" viewBox="0 0 375 374.999991" height="500" preserveAspectRatio="xMidYMid meet" version="1.2"><defs/><g id="4daee609e2"><rect x="0" width="375" y="0" height="374.999991" style="fill:#ffffff;fill-opacity:1;stroke:none;"/><rect x="0" width="375" y="0" height="374.999991" style="fill:#ffffff;fill-opacity:1;stroke:none;"/><path style="fill:none;stroke-width:1;stroke-linecap:butt;stroke-linejoin:miter;stroke:#000000;stroke-opacity:1;stroke-miterlimit:4;" d="M -0.000330384 0.501811 L 206.099242 0.501811 " transform="matrix(0.00181951,-0.749998,0.749998,0.00181951,187.498643,264.783995)"/><g style="fill:#000000;fill-opacity:1;"><g transform="translate(89.267385, 238.694941)"><path style="stroke:none" d="M 27.640625 0 L 2.765625 0 L 2.765625 -0.921875 C 5.398438 -0.921875 7.316406 -1.71875 8.515625 -3.3125 C 9.710938 -4.90625 10.460938 -7.515625 10.765625 -11.140625 C 11.078125 -14.765625 11.234375 -19.585938 11.234375 -25.609375 L 11.234375 -66.5 C 11.234375 -72.582031 11.078125 -77.421875 10.765625 -81.015625 C 10.460938 -84.609375 9.710938 -87.203125 8.515625 -88.796875 C 7.316406 -90.390625 5.398438 -91.1875 2.765625 -91.1875 L 2.765625 -92.109375 L 27.640625 -92.109375 L 27.640625 -91.1875 C 24.992188 -91.1875 23.070312 -90.390625 21.875 -88.796875 C 20.675781 -87.203125 19.921875 -84.609375 19.609375 -81.015625 C 19.304688 -77.421875 19.15625 -72.582031 19.15625 -66.5 L 19.15625 -50.390625 C 19.707031 -51.609375 20.9375 -52.816406 22.84375 -54.015625 C 24.75 -55.210938 27.082031 -55.8125 29.84375 -55.8125 C 32.914062 -55.8125 35.832031 -55.335938 38.59375 -54.390625 C 41.351562 -53.441406 44.050781 -52.488281 46.6875 -51.53125 C 49.332031 -50.582031 52.007812 -50.109375 54.71875 -50.109375 C 56.5 -50.109375 58.078125 -50.582031 59.453125 -51.53125 C 60.835938 -52.488281 61.53125 -53.765625 61.53125 -55.359375 L 62.453125 -55.359375 C 62.453125 -52.660156 61.390625 -50.296875 59.265625 -48.265625 C 57.148438 -46.234375 54.28125 -45.21875 50.65625 -45.21875 C 47.832031 -45.21875 45.253906 -45.632812 42.921875 -46.46875 C 40.585938 -47.300781 38.40625 -48.238281 36.375 -49.28125 C 34.351562 -50.320312 32.46875 -51.253906 30.71875 -52.078125 C 28.96875 -52.910156 27.265625 -53.328125 25.609375 -53.328125 C 23.210938 -53.328125 21.535156 -52.515625 20.578125 -50.890625 C 19.628906 -49.265625 19.15625 -47.375 19.15625 -45.21875 L 19.15625 -25.609375 C 19.15625 -19.585938 19.304688 -14.765625 19.609375 -11.140625 C 19.921875 -7.515625 20.675781 -4.90625 21.875 -3.3125 C 23.070312 -1.71875 24.992188 -0.921875 27.640625 -0.921875 Z M 56.734375 -91.1875 L 56.734375 -92.109375 L 81.609375 -92.109375 L 81.609375 -91.1875 C 78.960938 -91.1875 77.039062 -90.390625 75.84375 -88.796875 C 74.65625 -87.203125 73.90625 -84.609375 73.59375 -81.015625 C 73.289062 -77.421875 73.140625 -72.582031 73.140625 -66.5 L 73.140625 -25.609375 C 73.140625 -19.585938 73.289062 -14.765625 73.59375 -11.140625 C 73.90625 -7.515625 74.65625 -4.90625 75.84375 -3.3125 C 77.039062 -1.71875 78.960938 -0.921875 81.609375 -0.921875 L 81.609375 0 L 56.734375 0 L 56.734375 -0.921875 C 59.378906 -0.921875 61.300781 -1.71875 62.5 -3.3125 C 63.695312 -4.90625 64.445312 -7.515625 64.75 -11.140625 C 65.0625 -14.765625 65.21875 -19.585938 65.21875 -25.609375 L 65.21875 -66.5 C 65.21875 -72.582031 65.0625 -77.421875 64.75 -81.015625 C 64.445312 -84.609375 63.695312 -87.203125 62.5 -88.796875 C 61.300781 -90.390625 59.378906 -91.1875 56.734375 -91.1875 Z M 56.734375 -91.1875 "/></g></g><g style="fill:#000000;fill-opacity:1;"><g transform="translate(200.616915, 238.694941)"><path style="stroke:none" d="M 0 -91.1875 L 0 -92.109375 L 30.21875 -92.109375 L 30.21875 -91.1875 C 26.957031 -91.1875 24.484375 -90.753906 22.796875 -89.890625 C 21.109375 -89.035156 20.019531 -87.835938 19.53125 -86.296875 C 19.039062 -84.765625 18.976562 -82.984375 19.34375 -80.953125 C 19.707031 -78.929688 20.320312 -76.753906 21.1875 -74.421875 L 46.0625 -8.84375 C 49.863281 -19.707031 53.820312 -30.570312 57.9375 -41.4375 C 62.050781 -52.3125 65.890625 -63.210938 69.453125 -74.140625 C 70.066406 -75.984375 70.460938 -77.90625 70.640625 -79.90625 C 70.828125 -81.90625 70.613281 -83.75 70 -85.4375 C 69.382812 -87.125 68.21875 -88.503906 66.5 -89.578125 C 64.78125 -90.648438 62.296875 -91.1875 59.046875 -91.1875 L 59.046875 -92.109375 L 85.109375 -92.109375 L 85.109375 -91.1875 C 82.285156 -91.1875 79.96875 -89.925781 78.15625 -87.40625 C 76.34375 -84.894531 74.453125 -81.085938 72.484375 -75.984375 L 43.015625 1.84375 L 42.09375 1.84375 L 12.625 -75.984375 C 10.59375 -81.085938 8.6875 -84.894531 6.90625 -87.40625 C 5.125 -89.925781 2.820312 -91.1875 0 -91.1875 Z M 0 -91.1875 "/></g></g><path style=" stroke:none;fill-rule:nonzero;fill:#ffffff;fill-opacity:1;" d="M 73.292969 178.355469 L 301.699219 178.355469 C 304.988281 178.355469 307.652344 181.019531 307.652344 184.308594 L 307.652344 196.214844 C 307.652344 199.503906 304.988281 202.167969 301.699219 202.167969 L 73.292969 202.167969 C 71.710938 202.167969 70.199219 201.539062 69.082031 200.425781 C 67.964844 199.308594 67.339844 197.792969 67.339844 196.214844 L 67.339844 184.308594 C 67.339844 181.019531 70.003906 178.355469 73.292969 178.355469 Z M 73.292969 178.355469 "/><g style="fill:#000000;fill-opacity:1;"><g transform="translate(75.467446, 195.511775)"><path style="stroke:none" d="M 6.078125 0.09375 C 5.066406 0.09375 4.15625 -0.128906 3.34375 -0.578125 C 2.539062 -1.023438 1.90625 -1.644531 1.4375 -2.4375 C 0.976562 -3.226562 0.75 -4.109375 0.75 -5.078125 C 0.75 -6.054688 0.976562 -6.941406 1.4375 -7.734375 C 1.90625 -8.523438 2.546875 -9.144531 3.359375 -9.59375 C 4.171875 -10.039062 5.082031 -10.265625 6.09375 -10.265625 C 6.84375 -10.265625 7.535156 -10.132812 8.171875 -9.875 C 8.816406 -9.625 9.363281 -9.257812 9.8125 -8.78125 L 9.125 -8.09375 C 8.332031 -8.894531 7.332031 -9.296875 6.125 -9.296875 C 5.3125 -9.296875 4.578125 -9.113281 3.921875 -8.75 C 3.265625 -8.382812 2.75 -7.878906 2.375 -7.234375 C 2 -6.597656 1.8125 -5.878906 1.8125 -5.078125 C 1.8125 -4.285156 2 -3.566406 2.375 -2.921875 C 2.75 -2.285156 3.265625 -1.785156 3.921875 -1.421875 C 4.578125 -1.054688 5.3125 -0.875 6.125 -0.875 C 7.34375 -0.875 8.34375 -1.28125 9.125 -2.09375 L 9.8125 -1.40625 C 9.363281 -0.925781 8.816406 -0.554688 8.171875 -0.296875 C 7.523438 -0.0351562 6.828125 0.09375 6.078125 0.09375 Z M 6.078125 0.09375 "/></g></g><g style="fill:#000000;fill-opacity:1;"><g transform="translate(90.541648, 195.511775)"><path style="stroke:none" d="M 6.109375 0.09375 C 5.097656 0.09375 4.179688 -0.128906 3.359375 -0.578125 C 2.546875 -1.035156 1.90625 -1.65625 1.4375 -2.4375 C 0.976562 -3.226562 0.75 -4.109375 0.75 -5.078125 C 0.75 -6.054688 0.976562 -6.9375 1.4375 -7.71875 C 1.90625 -8.507812 2.546875 -9.128906 3.359375 -9.578125 C 4.179688 -10.035156 5.097656 -10.265625 6.109375 -10.265625 C 7.109375 -10.265625 8.015625 -10.039062 8.828125 -9.59375 C 9.640625 -9.144531 10.273438 -8.523438 10.734375 -7.734375 C 11.203125 -6.941406 11.4375 -6.054688 11.4375 -5.078125 C 11.4375 -4.109375 11.203125 -3.226562 10.734375 -2.4375 C 10.273438 -1.644531 9.640625 -1.023438 8.828125 -0.578125 C 8.015625 -0.128906 7.109375 0.09375 6.109375 0.09375 Z M 6.109375 -0.875 C 6.910156 -0.875 7.632812 -1.054688 8.28125 -1.421875 C 8.925781 -1.785156 9.429688 -2.285156 9.796875 -2.921875 C 10.171875 -3.566406 10.359375 -4.285156 10.359375 -5.078125 C 10.359375 -5.878906 10.171875 -6.597656 9.796875 -7.234375 C 9.429688 -7.878906 8.925781 -8.382812 8.28125 -8.75 C 7.632812 -9.113281 6.910156 -9.296875 6.109375 -9.296875 C 5.296875 -9.296875 4.5625 -9.113281 3.90625 -8.75 C 3.257812 -8.382812 2.75 -7.878906 2.375 -7.234375 C 2 -6.597656 1.8125 -5.878906 1.8125 -5.078125 C 1.8125 -4.285156 2 -3.566406 2.375 -2.921875 C 2.75 -2.285156 3.257812 -1.785156 3.90625 -1.421875 C 4.5625 -1.054688 5.296875 -0.875 6.109375 -0.875 Z M 6.109375 -0.875 "/></g></g><g style="fill:#000000;fill-opacity:1;"><g transform="translate(107.358191, 195.511775)"><path style="stroke:none" d="M 10.15625 -10.171875 L 10.15625 0 L 9.265625 0 L 2.734375 -8.25 L 2.734375 0 L 1.65625 0 L 1.65625 -10.171875 L 2.546875 -10.171875 L 9.09375 -1.921875 L 9.09375 -10.171875 Z M 10.15625 -10.171875 "/></g></g><g style="fill:#000000;fill-opacity:1;"><g transform="translate(123.797227, 195.511775)"><path style="stroke:none" d="M 4.46875 0.09375 C 3.707031 0.09375 2.976562 -0.0234375 2.28125 -0.265625 C 1.59375 -0.515625 1.0625 -0.835938 0.6875 -1.234375 L 1.109375 -2.0625 C 1.472656 -1.695312 1.957031 -1.398438 2.5625 -1.171875 C 3.175781 -0.941406 3.8125 -0.828125 4.46875 -0.828125 C 5.375 -0.828125 6.050781 -0.992188 6.5 -1.328125 C 6.957031 -1.660156 7.1875 -2.09375 7.1875 -2.625 C 7.1875 -3.03125 7.0625 -3.351562 6.8125 -3.59375 C 6.570312 -3.84375 6.269531 -4.03125 5.90625 -4.15625 C 5.550781 -4.289062 5.054688 -4.4375 4.421875 -4.59375 C 3.648438 -4.78125 3.035156 -4.960938 2.578125 -5.140625 C 2.128906 -5.328125 1.742188 -5.601562 1.421875 -5.96875 C 1.097656 -6.34375 0.9375 -6.84375 0.9375 -7.46875 C 0.9375 -7.976562 1.070312 -8.441406 1.34375 -8.859375 C 1.613281 -9.285156 2.023438 -9.625 2.578125 -9.875 C 3.140625 -10.132812 3.835938 -10.265625 4.671875 -10.265625 C 5.253906 -10.265625 5.820312 -10.179688 6.375 -10.015625 C 6.9375 -9.859375 7.421875 -9.640625 7.828125 -9.359375 L 7.46875 -8.5 C 7.039062 -8.78125 6.582031 -8.988281 6.09375 -9.125 C 5.613281 -9.269531 5.140625 -9.34375 4.671875 -9.34375 C 3.785156 -9.34375 3.113281 -9.171875 2.65625 -8.828125 C 2.207031 -8.484375 1.984375 -8.039062 1.984375 -7.5 C 1.984375 -7.09375 2.109375 -6.765625 2.359375 -6.515625 C 2.609375 -6.265625 2.914062 -6.070312 3.28125 -5.9375 C 3.65625 -5.8125 4.160156 -5.671875 4.796875 -5.515625 C 5.546875 -5.335938 6.148438 -5.15625 6.609375 -4.96875 C 7.066406 -4.789062 7.453125 -4.519531 7.765625 -4.15625 C 8.085938 -3.800781 8.25 -3.3125 8.25 -2.6875 C 8.25 -2.175781 8.109375 -1.707031 7.828125 -1.28125 C 7.554688 -0.863281 7.132812 -0.53125 6.5625 -0.28125 C 5.988281 -0.03125 5.289062 0.09375 4.46875 0.09375 Z M 4.46875 0.09375 "/></g></g><g style="fill:#000000;fill-opacity:1;"><g transform="translate(137.361404, 195.511775)"><path style="stroke:none" d="M 8.84375 -0.9375 L 8.84375 0 L 1.65625 0 L 1.65625 -10.171875 L 8.625 -10.171875 L 8.625 -9.234375 L 2.734375 -9.234375 L 2.734375 -5.625 L 7.984375 -5.625 L 7.984375 -4.703125 L 2.734375 -4.703125 L 2.734375 -0.9375 Z M 8.84375 -0.9375 "/></g></g><g style="fill:#000000;fill-opacity:1;"><g transform="translate(151.709628, 195.511775)"><path style="stroke:none" d="M 1.65625 -10.171875 L 2.734375 -10.171875 L 2.734375 0 L 1.65625 0 Z M 1.65625 -10.171875 "/></g></g><g style="fill:#000000;fill-opacity:1;"><g transform="translate(160.729196, 195.511775)"><path style="stroke:none" d="M 1.65625 -10.171875 L 2.734375 -10.171875 L 2.734375 -0.9375 L 8.421875 -0.9375 L 8.421875 0 L 1.65625 0 Z M 1.65625 -10.171875 "/></g></g><g style="fill:#000000;fill-opacity:1;"><g transform="translate(173.915868, 195.511775)"><path style="stroke:none" d=""/></g></g><g style="fill:#000000;fill-opacity:1;"><g transform="translate(182.354649, 195.511775)"><path style="stroke:none" d="M 8.9375 0.15625 L 7.53125 -1.296875 C 6.664062 -0.367188 5.53125 0.09375 4.125 0.09375 C 3.46875 0.09375 2.878906 -0.015625 2.359375 -0.234375 C 1.835938 -0.453125 1.429688 -0.757812 1.140625 -1.15625 C 0.859375 -1.550781 0.71875 -2 0.71875 -2.5 C 0.71875 -3.113281 0.910156 -3.660156 1.296875 -4.140625 C 1.679688 -4.628906 2.335938 -5.140625 3.265625 -5.671875 C 2.785156 -6.171875 2.453125 -6.597656 2.265625 -6.953125 C 2.078125 -7.304688 1.984375 -7.679688 1.984375 -8.078125 C 1.984375 -8.722656 2.21875 -9.242188 2.6875 -9.640625 C 3.15625 -10.046875 3.78125 -10.25 4.5625 -10.25 C 5.289062 -10.25 5.867188 -10.066406 6.296875 -9.703125 C 6.722656 -9.347656 6.9375 -8.851562 6.9375 -8.21875 C 6.9375 -7.71875 6.765625 -7.265625 6.421875 -6.859375 C 6.085938 -6.460938 5.503906 -6.019531 4.671875 -5.53125 L 7.453125 -2.65625 C 7.765625 -3.207031 7.992188 -3.863281 8.140625 -4.625 L 8.984375 -4.359375 C 8.796875 -3.453125 8.492188 -2.671875 8.078125 -2.015625 L 9.53125 -0.515625 Z M 4.5625 -9.46875 C 4.0625 -9.46875 3.664062 -9.34375 3.375 -9.09375 C 3.09375 -8.84375 2.953125 -8.507812 2.953125 -8.09375 C 2.953125 -7.789062 3.03125 -7.503906 3.1875 -7.234375 C 3.34375 -6.960938 3.644531 -6.59375 4.09375 -6.125 C 4.832031 -6.550781 5.34375 -6.914062 5.625 -7.21875 C 5.90625 -7.519531 6.046875 -7.847656 6.046875 -8.203125 C 6.046875 -8.597656 5.914062 -8.90625 5.65625 -9.125 C 5.394531 -9.351562 5.03125 -9.46875 4.5625 -9.46875 Z M 4.1875 -0.765625 C 5.3125 -0.765625 6.222656 -1.148438 6.921875 -1.921875 L 3.84375 -5.078125 C 3.039062 -4.617188 2.488281 -4.203125 2.1875 -3.828125 C 1.882812 -3.460938 1.734375 -3.050781 1.734375 -2.59375 C 1.734375 -2.039062 1.957031 -1.597656 2.40625 -1.265625 C 2.851562 -0.929688 3.445312 -0.765625 4.1875 -0.765625 Z M 4.1875 -0.765625 "/></g></g><g style="fill:#000000;fill-opacity:1;"><g transform="translate(196.702873, 195.511775)"><path style="stroke:none" d=""/></g></g><g style="fill:#000000;fill-opacity:1;"><g transform="translate(205.141654, 195.511775)"><path style="stroke:none" d="M 8.828125 -5.078125 L 9.859375 -5.078125 L 9.859375 -1.203125 C 9.378906 -0.785156 8.8125 -0.460938 8.15625 -0.234375 C 7.507812 -0.015625 6.832031 0.09375 6.125 0.09375 C 5.101562 0.09375 4.1875 -0.128906 3.375 -0.578125 C 2.5625 -1.023438 1.921875 -1.644531 1.453125 -2.4375 C 0.984375 -3.226562 0.75 -4.109375 0.75 -5.078125 C 0.75 -6.054688 0.984375 -6.941406 1.453125 -7.734375 C 1.921875 -8.523438 2.5625 -9.144531 3.375 -9.59375 C 4.1875 -10.039062 5.101562 -10.265625 6.125 -10.265625 C 6.90625 -10.265625 7.617188 -10.140625 8.265625 -9.890625 C 8.910156 -9.640625 9.457031 -9.273438 9.90625 -8.796875 L 9.234375 -8.109375 C 8.429688 -8.898438 7.410156 -9.296875 6.171875 -9.296875 C 5.347656 -9.296875 4.601562 -9.113281 3.9375 -8.75 C 3.28125 -8.382812 2.757812 -7.878906 2.375 -7.234375 C 2 -6.597656 1.8125 -5.878906 1.8125 -5.078125 C 1.8125 -4.285156 2 -3.566406 2.375 -2.921875 C 2.757812 -2.285156 3.28125 -1.785156 3.9375 -1.421875 C 4.59375 -1.054688 5.332031 -0.875 6.15625 -0.875 C 7.207031 -0.875 8.097656 -1.132812 8.828125 -1.65625 Z M 8.828125 -5.078125 "/></g></g><g style="fill:#000000;fill-opacity:1;"><g transform="translate(220.999914, 195.511775)"><path style="stroke:none" d="M 8.84375 -0.9375 L 8.84375 0 L 1.65625 0 L 1.65625 -10.171875 L 8.625 -10.171875 L 8.625 -9.234375 L 2.734375 -9.234375 L 2.734375 -5.625 L 7.984375 -5.625 L 7.984375 -4.703125 L 2.734375 -4.703125 L 2.734375 -0.9375 Z M 8.84375 -0.9375 "/></g></g><g style="fill:#000000;fill-opacity:1;"><g transform="translate(235.348137, 195.511775)"><path style="stroke:none" d="M 4.46875 0.09375 C 3.707031 0.09375 2.976562 -0.0234375 2.28125 -0.265625 C 1.59375 -0.515625 1.0625 -0.835938 0.6875 -1.234375 L 1.109375 -2.0625 C 1.472656 -1.695312 1.957031 -1.398438 2.5625 -1.171875 C 3.175781 -0.941406 3.8125 -0.828125 4.46875 -0.828125 C 5.375 -0.828125 6.050781 -0.992188 6.5 -1.328125 C 6.957031 -1.660156 7.1875 -2.09375 7.1875 -2.625 C 7.1875 -3.03125 7.0625 -3.351562 6.8125 -3.59375 C 6.570312 -3.84375 6.269531 -4.03125 5.90625 -4.15625 C 5.550781 -4.289062 5.054688 -4.4375 4.421875 -4.59375 C 3.648438 -4.78125 3.035156 -4.960938 2.578125 -5.140625 C 2.128906 -5.328125 1.742188 -5.601562 1.421875 -5.96875 C 1.097656 -6.34375 0.9375 -6.84375 0.9375 -7.46875 C 0.9375 -7.976562 1.070312 -8.441406 1.34375 -8.859375 C 1.613281 -9.285156 2.023438 -9.625 2.578125 -9.875 C 3.140625 -10.132812 3.835938 -10.265625 4.671875 -10.265625 C 5.253906 -10.265625 5.820312 -10.179688 6.375 -10.015625 C 6.9375 -9.859375 7.421875 -9.640625 7.828125 -9.359375 L 7.46875 -8.5 C 7.039062 -8.78125 6.582031 -8.988281 6.09375 -9.125 C 5.613281 -9.269531 5.140625 -9.34375 4.671875 -9.34375 C 3.785156 -9.34375 3.113281 -9.171875 2.65625 -8.828125 C 2.207031 -8.484375 1.984375 -8.039062 1.984375 -7.5 C 1.984375 -7.09375 2.109375 -6.765625 2.359375 -6.515625 C 2.609375 -6.265625 2.914062 -6.070312 3.28125 -5.9375 C 3.65625 -5.8125 4.160156 -5.671875 4.796875 -5.515625 C 5.546875 -5.335938 6.148438 -5.15625 6.609375 -4.96875 C 7.066406 -4.789062 7.453125 -4.519531 7.765625 -4.15625 C 8.085938 -3.800781 8.25 -3.3125 8.25 -2.6875 C 8.25 -2.175781 8.109375 -1.707031 7.828125 -1.28125 C 7.554688 -0.863281 7.132812 -0.53125 6.5625 -0.28125 C 5.988281 -0.03125 5.289062 0.09375 4.46875 0.09375 Z M 4.46875 0.09375 "/></g></g><g style="fill:#000000;fill-opacity:1;"><g transform="translate(248.912315, 195.511775)"><path style="stroke:none" d="M 3.625 -9.234375 L 0.0625 -9.234375 L 0.0625 -10.171875 L 8.28125 -10.171875 L 8.28125 -9.234375 L 4.703125 -9.234375 L 4.703125 0 L 3.625 0 Z M 3.625 -9.234375 "/></g></g><g style="fill:#000000;fill-opacity:1;"><g transform="translate(261.881194, 195.511775)"><path style="stroke:none" d="M 1.65625 -10.171875 L 2.734375 -10.171875 L 2.734375 0 L 1.65625 0 Z M 1.65625 -10.171875 "/></g></g><g style="fill:#000000;fill-opacity:1;"><g transform="translate(270.900751, 195.511775)"><path style="stroke:none" d="M 6.109375 0.09375 C 5.097656 0.09375 4.179688 -0.128906 3.359375 -0.578125 C 2.546875 -1.035156 1.90625 -1.65625 1.4375 -2.4375 C 0.976562 -3.226562 0.75 -4.109375 0.75 -5.078125 C 0.75 -6.054688 0.976562 -6.9375 1.4375 -7.71875 C 1.90625 -8.507812 2.546875 -9.128906 3.359375 -9.578125 C 4.179688 -10.035156 5.097656 -10.265625 6.109375 -10.265625 C 7.109375 -10.265625 8.015625 -10.039062 8.828125 -9.59375 C 9.640625 -9.144531 10.273438 -8.523438 10.734375 -7.734375 C 11.203125 -6.941406 11.4375 -6.054688 11.4375 -5.078125 C 11.4375 -4.109375 11.203125 -3.226562 10.734375 -2.4375 C 10.273438 -1.644531 9.640625 -1.023438 8.828125 -0.578125 C 8.015625 -0.128906 7.109375 0.09375 6.109375 0.09375 Z M 6.109375 -0.875 C 6.910156 -0.875 7.632812 -1.054688 8.28125 -1.421875 C 8.925781 -1.785156 9.429688 -2.285156 9.796875 -2.921875 C 10.171875 -3.566406 10.359375 -4.285156 10.359375 -5.078125 C 10.359375 -5.878906 10.171875 -6.597656 9.796875 -7.234375 C 9.429688 -7.878906 8.925781 -8.382812 8.28125 -8.75 C 7.632812 -9.113281 6.910156 -9.296875 6.109375 -9.296875 C 5.296875 -9.296875 4.5625 -9.113281 3.90625 -8.75 C 3.257812 -8.382812 2.75 -7.878906 2.375 -7.234375 C 2 -6.597656 1.8125 -5.878906 1.8125 -5.078125 C 1.8125 -4.285156 2 -3.566406 2.375 -2.921875 C 2.75 -2.285156 3.257812 -1.785156 3.90625 -1.421875 C 4.5625 -1.054688 5.296875 -0.875 6.109375 -0.875 Z M 6.109375 -0.875 "/></g></g><g style="fill:#000000;fill-opacity:1;"><g transform="translate(287.717294, 195.511775)"><path style="stroke:none" d="M 10.15625 -10.171875 L 10.15625 0 L 9.265625 0 L 2.734375 -8.25 L 2.734375 0 L 1.65625 0 L 1.65625 -10.171875 L 2.546875 -10.171875 L 9.09375 -1.921875 L 9.09375 -10.171875 Z M 10.15625 -10.171875 "/></g></g></g></svg>