<?xml version="1.0" encoding="utf-8"?>
<!-- Generator: Adobe Illustrator 16.0.0, SVG Export Plug-In . SVG Version: 6.00 Build 0)  -->
<!DOCTYPE svg PUBLIC "-//W3C//DTD SVG 1.1//EN" "http://www.w3.org/Graphics/SVG/1.1/DTD/svg11.dtd">
<svg version="1.1" id="Guides_For_Artboard" xmlns="http://www.w3.org/2000/svg" xmlns:xlink="http://www.w3.org/1999/xlink"
	 x="0px" y="0px" width="288px" height="288px" viewBox="0 0 288 288" enable-background="new 0 0 288 288" xml:space="preserve">
<g>
	<g>
		<g>
			<path fill="#077CA5" d="M22.173,180.705c-0.233,0-0.52-0.014-0.848-0.046c-0.326-0.028-0.714-0.06-1.16-0.088v31.296
				c0.269-0.027,0.516-0.053,0.749-0.066c0.23-0.015,0.421-0.029,0.57-0.043c0.148-0.018,0.378-0.024,0.689-0.024
				c0.287,0,0.499,0.007,0.637,0.024c0.145,0.014,0.325,0.028,0.551,0.043c0.223,0.014,0.499,0.039,0.827,0.066v-31.296
				c-0.48,0.028-0.884,0.06-1.219,0.088C22.633,180.691,22.371,180.705,22.173,180.705z"/>
			<path fill="#077CA5" d="M49.11,183.777H27.921c0.028,0.215,0.046,0.389,0.061,0.517c0.01,0.128,0.024,0.232,0.038,0.321
				c0.014,0.089,0.021,0.226,0.021,0.414c0,0.123-0.014,0.307-0.043,0.558c-0.024,0.251-0.05,0.475-0.078,0.68
				c3.122-0.322,6.109-0.481,8.962-0.481v26.164c0.307-0.028,0.64-0.054,0.986-0.082c0.35-0.025,0.633-0.038,0.848-0.038
				c0.255,0,0.446,0.007,0.573,0.017c0.127,0.015,0.297,0.028,0.495,0.043c0.2,0.015,0.452,0.032,0.749,0.061v-26.164
				c1.576,0,3.111,0.046,4.61,0.138c1.496,0.096,2.821,0.209,3.966,0.344c-0.024-0.272-0.049-0.517-0.077-0.729
				c-0.028-0.215-0.043-0.386-0.043-0.509c0-0.136,0.015-0.301,0.043-0.503C49.061,184.322,49.086,184.075,49.11,183.777z"/>
			<path fill="#077CA5" d="M54.007,183.898c-0.216,0-0.47-0.011-0.761-0.04c-0.296-0.028-0.643-0.054-1.046-0.081v28.09
				c0.24-0.025,0.466-0.046,0.672-0.06c0.208-0.015,0.382-0.025,0.512-0.04c0.134-0.013,0.343-0.02,0.623-0.02
				c0.254,0,0.446,0.007,0.569,0.02c0.126,0.015,0.293,0.025,0.495,0.04c0.198,0.014,0.445,0.034,0.742,0.06v-28.09
				c-0.431,0.027-0.792,0.053-1.096,0.081C54.42,183.888,54.181,183.898,54.007,183.898z"/>
			<path fill="#077CA5" d="M84.823,183.898c-0.145,0-0.312-0.011-0.499-0.04c-0.187-0.028-0.399-0.054-0.64-0.081v21.154h-0.424
				l-19.493-21.154h-1.619v28.09c0.163-0.025,0.308-0.046,0.435-0.06c0.131-0.015,0.237-0.025,0.321-0.04
				c0.093-0.013,0.219-0.02,0.396-0.02c0.134,0,0.315,0.014,0.537,0.038c0.223,0.028,0.428,0.056,0.616,0.081v-22.133h0.424
				L82.62,209.36c0.867,0.951,1.577,1.786,2.125,2.507h1.244v-28.09c-0.268,0.027-0.494,0.053-0.681,0.081
				C85.121,183.888,84.958,183.898,84.823,183.898z"/>
			<path fill="#077CA5" d="M106.784,209.711c0.024-0.184,0.042-0.322,0.056-0.427c-1.399,0.212-2.666,0.338-3.79,0.377
				c-3.287,0.11-5.766,0.163-7.438,0.163v-11.992h6.377c0.255,0,0.622,0.015,1.103,0.04c0.48,0.028,0.891,0.056,1.23,0.081
				c0.343,0.028,0.781,0.053,1.315,0.081c-0.029-0.282-0.054-0.523-0.078-0.721c-0.028-0.201-0.042-0.343-0.042-0.421
				c0-0.135,0.014-0.289,0.042-0.463c0.024-0.173,0.049-0.382,0.078-0.622c-0.534,0.028-0.972,0.054-1.315,0.082
				c-0.339,0.026-0.75,0.052-1.23,0.089c-0.481,0.031-0.848,0.051-1.103,0.051h-6.377v-10.287h3.167l4.111,0.082
				c1.446,0.092,2.677,0.24,3.691,0.442c-0.028-0.272-0.053-0.517-0.081-0.729c-0.029-0.215-0.042-0.386-0.042-0.509
				c0-0.136,0.014-0.301,0.042-0.503c0.028-0.204,0.053-0.451,0.081-0.749H92.006v27.971h14.833
				c-0.024-0.201-0.056-0.407-0.088-0.622c-0.032-0.213-0.05-0.415-0.05-0.603c0.011-0.145,0.025-0.271,0.032-0.381
				C106.737,210.037,106.755,209.893,106.784,209.711z"/>
			<path fill="#077CA5" d="M103.835,178.086c0.51-0.351,0.792-0.598,0.862-0.742c0.025-0.044,0.046-0.174,0.057-0.403
				c0.014-0.226,0.021-0.406,0.021-0.542c-0.121-0.519-0.594-0.781-1.421-0.781c-0.148,0.015-0.326,0.107-0.53,0.28
				c-0.212,0.178-0.354,0.282-0.431,0.322c-0.071,0.08-0.368,0.389-0.905,0.922l-4.588,4.593h1.224L103.835,178.086z"/>
			<path fill="#077CA5" d="M144.157,183.176l-12.736,28.525l-0.638-0.854l-1.983-2.306l-8.464-10.709
				c1.125-0.211,2.171-0.512,3.147-0.901c0.976-0.387,1.874-0.907,2.687-1.559c0.816-0.646,1.449-1.413,1.905-2.305
				c0.457-0.887,0.682-1.898,0.682-3.033c0-2.099-0.735-3.669-2.209-4.705c-1.473-1.035-3.78-1.552-6.925-1.552h-8.71v28.09
				c0.311-0.025,0.64-0.053,0.99-0.081c0.346-0.024,0.622-0.038,0.828-0.038c0.254,0,0.445,0.007,0.583,0.02
				c0.135,0.015,0.301,0.025,0.505,0.04c0.198,0.014,0.449,0.034,0.743,0.06v-13.712h1.545l3.291,3.867l4.851,6.277
				c0.466,0.617,1.329,1.803,2.587,3.567c0.317-0.025,0.65-0.053,1-0.074c0.351-0.017,0.57-0.031,0.672-0.038
				c0.102-0.007,0.321-0.007,0.671-0.007c0.351,0,0.604,0.007,0.775,0.02c0.162,0.015,0.378,0.025,0.64,0.04
				c0.211,0.011,0.471,0.027,0.76,0.047l-0.006,0.013c0.026-0.004,0.047-0.005,0.072-0.008c0.043,0.003,0.08,0.005,0.125,0.008
				l-0.016-0.021c0.116-0.015,0.234-0.03,0.339-0.039c0.16-0.015,0.291-0.025,0.4-0.04c0.106-0.013,0.273-0.02,0.498-0.02
				c0.216,0,0.383,0.007,0.496,0.02c0.114,0.015,0.254,0.025,0.421,0.04c0.166,0.014,0.372,0.034,0.611,0.06
				c0.318-1.082,0.704-2.251,1.152-3.508c0.445-1.258,0.884-2.432,1.315-3.53c0.425-1.096,0.961-2.443,1.601-4.049h10.426
				c1.485,3.37,2.92,7.064,4.313,11.087c0.36-0.025,0.749-0.053,1.159-0.081c0.417-0.024,0.757-0.038,1.026-0.038
				c0.307,0,0.535,0.007,0.691,0.02c0.152,0.015,0.344,0.025,0.569,0.04c0.229,0.014,0.513,0.034,0.862,0.06l-12.313-28.691H144.157
				z M116.487,196.632c-0.399-0.014-0.753-0.028-1.064-0.037c-0.304-0.006-0.594-0.006-0.863-0.006v-11.288
				c0.644-0.024,1.23-0.046,1.757-0.052c0.526-0.009,1.106-0.015,1.735-0.025c1.256,0,2.104,0.038,2.545,0.12
				c3.005,0.494,4.511,2.216,4.511,5.171c0,1.538-0.488,2.814-1.457,3.837c-0.969,1.021-2.234,1.703-3.797,2.039
				C118.959,196.55,117.838,196.632,116.487,196.632z M139.145,199.057l4.472-10.507l4.549,10.507H139.145z"/>
			<path fill="#077CA5" d="M162.144,183.898c-0.212,0-0.466-0.011-0.764-0.04c-0.29-0.028-0.64-0.054-1.039-0.081v28.09
				c0.241-0.025,0.464-0.046,0.672-0.06c0.205-0.015,0.375-0.025,0.509-0.04c0.135-0.013,0.339-0.02,0.622-0.02
				c0.255,0,0.446,0.007,0.573,0.02c0.127,0.015,0.289,0.025,0.487,0.04c0.206,0.014,0.45,0.034,0.742,0.06v-28.09
				c-0.424,0.027-0.792,0.053-1.088,0.081C162.554,183.888,162.317,183.898,162.144,183.898z"/>
			<path fill="#077CA5" d="M187.749,208.541l-8.459-10.709c1.121-0.211,2.17-0.512,3.146-0.901c0.976-0.387,1.874-0.907,2.687-1.559
				c0.813-0.646,1.45-1.413,1.906-2.305c0.456-0.887,0.683-1.898,0.683-3.033c0-2.099-0.739-3.669-2.21-4.705
				c-1.474-1.035-3.779-1.552-6.927-1.552h-8.709v28.09c0.312-0.025,0.635-0.053,0.99-0.081c0.347-0.024,0.621-0.038,0.822-0.038
				c0.259,0,0.449,0.007,0.585,0.02c0.134,0.015,0.304,0.025,0.509,0.04c0.197,0.014,0.444,0.034,0.742,0.06v-13.712h1.544
				l3.288,3.867l4.854,6.277c0.466,0.617,1.328,1.803,2.584,3.567c0.321-0.025,0.653-0.053,1-0.074
				c0.35-0.017,0.572-0.031,0.672-0.038c0.103-0.007,0.325-0.007,0.672-0.007c0.349,0,0.607,0.007,0.774,0.02
				c0.165,0.015,0.381,0.025,0.64,0.04c0.262,0.014,0.579,0.034,0.954,0.06l-0.763-1.021L187.749,208.541z M175.436,196.632
				c-0.398-0.014-0.753-0.028-1.061-0.037c-0.307-0.006-0.594-0.006-0.861-0.006v-11.288c0.643-0.024,1.226-0.046,1.753-0.052
				c0.53-0.009,1.11-0.015,1.736-0.025c1.255,0,2.103,0.038,2.548,0.12c3.006,0.494,4.511,2.216,4.511,5.171
				c0,1.538-0.487,2.814-1.456,3.837c-0.969,1.021-2.234,1.703-3.796,2.039C177.911,196.55,176.786,196.632,175.436,196.632z"/>
			<path fill="#077CA5" d="M207.981,210.523c0.013-0.145,0.021-0.271,0.026-0.381c0.009-0.105,0.025-0.25,0.051-0.432
				c0.028-0.184,0.049-0.322,0.063-0.427c-1.407,0.212-2.665,0.338-3.79,0.377c-3.287,0.11-5.769,0.163-7.438,0.163v-11.992h6.374
				c0.255,0,0.622,0.015,1.103,0.04c0.484,0.028,0.896,0.056,1.234,0.081c0.339,0.028,0.777,0.053,1.314,0.081
				c-0.027-0.282-0.056-0.523-0.084-0.721c-0.025-0.201-0.036-0.343-0.036-0.421c0-0.135,0.011-0.289,0.036-0.463
				c0.028-0.173,0.057-0.382,0.084-0.622c-0.537,0.028-0.976,0.054-1.314,0.082c-0.339,0.026-0.75,0.052-1.234,0.089
				c-0.48,0.031-0.848,0.051-1.103,0.051h-6.374v-10.287h3.167l4.108,0.082c1.446,0.092,2.673,0.24,3.69,0.442
				c-0.028-0.272-0.052-0.517-0.077-0.729c-0.028-0.215-0.043-0.386-0.043-0.509c0-0.136,0.015-0.301,0.043-0.503
				c0.025-0.204,0.049-0.451,0.077-0.749h-14.575v27.971h14.837c-0.028-0.201-0.057-0.407-0.091-0.622
				C207.994,210.913,207.981,210.711,207.981,210.523z"/>
		</g>
		<g>
			<path fill="#6D9632" d="M237.648,196.709c-0.821-0.548-1.726-0.954-2.712-1.237c-0.986-0.286-1.955-0.448-2.909-0.491
				c1.061-0.287,2.021-0.654,2.888-1.117c0.866-0.46,1.63-1.043,2.299-1.743c0.663-0.699,1.177-1.489,1.533-2.362
				c0.357-0.867,0.537-1.822,0.537-2.866c0-1.548-0.378-2.792-1.138-3.722s-1.888-1.595-3.383-1.995
				c-1.499-0.403-3.395-0.604-5.686-0.604h-8.961v31.162h6.521c1.446,0,2.684-0.027,3.713-0.089
				c1.025-0.061,2.075-0.229,3.146-0.516c1.074-0.279,2.016-0.689,2.817-1.226c2.74-1.907,4.111-4.483,4.111-7.729
				c0-1.283-0.262-2.376-0.774-3.284C239.136,197.981,238.468,197.253,237.648,196.709z M224.14,182.268h3.362
				c1.697,0,3.11,0.163,4.238,0.499c1.128,0.335,2.002,0.927,2.609,1.757c0.612,0.834,0.916,1.944,0.916,3.329
				c0,1.252-0.304,2.355-0.916,3.307c-0.607,0.953-1.471,1.7-2.585,2.234c-0.862,0.388-1.734,0.64-2.619,0.767
				c-0.888,0.127-1.927,0.194-3.136,0.194h-1.87V182.268z M235.209,206.597c-0.65,1.089-1.56,1.927-2.723,2.53
				c-1.163,0.603-2.496,0.91-4.009,0.91h-4.338v-13.986h2.553c3.03,0,5.367,0.517,7.018,1.549c1.646,1.036,2.471,2.824,2.471,5.355
				C236.181,204.295,235.859,205.509,235.209,206.597z"/>
			<path fill="#6D9632" d="M247.443,183.898c-0.215,0-0.47-0.011-0.76-0.04c-0.297-0.028-0.643-0.054-1.046-0.081v28.09
				c0.239-0.025,0.467-0.046,0.671-0.06c0.208-0.015,0.382-0.025,0.513-0.04c0.135-0.013,0.344-0.02,0.622-0.02
				c0.256,0,0.442,0.007,0.569,0.02c0.128,0.015,0.294,0.025,0.494,0.04c0.199,0.014,0.446,0.034,0.744,0.06v-28.09
				c-0.432,0.027-0.793,0.053-1.097,0.081C247.858,183.888,247.616,183.898,247.443,183.898z"/>
			<path fill="#6D9632" d="M268.524,198.621c-1.104-0.968-2.744-1.884-4.922-2.746c-2.177-0.862-3.781-1.683-4.811-2.465
				c-1.029-0.784-1.546-2.007-1.546-3.676c0-0.938,0.233-1.771,0.693-2.499s1.085-1.291,1.874-1.693
				c0.792-0.4,1.657-0.603,2.608-0.603c1.188,0,2.23,0.315,3.126,0.951c0.897,0.634,1.551,1.51,1.965,2.619h0.403
				c0.52-1.763,0.887-2.888,1.103-3.368c-0.71-0.654-1.598-1.149-2.658-1.477c-1.061-0.326-2.129-0.489-3.195-0.489
				c-2.638,0-4.815,0.683-6.54,2.048c-1.722,1.36-2.584,3.31-2.584,5.833c0,2.07,0.555,3.616,1.664,4.631
				c1.11,1.019,2.729,1.937,4.861,2.774c2.132,0.835,3.719,1.645,4.762,2.426c1.043,0.782,1.562,2.025,1.562,3.722
				c0,1.072-0.247,2.064-0.741,2.987c-0.495,0.923-1.173,1.652-2.043,2.192c-0.87,0.541-1.846,0.817-2.928,0.817
				c-1.484,0-2.739-0.354-3.77-1.064c-1.031-0.708-1.985-1.778-2.869-3.206h-0.417c-0.202,1.537-0.464,2.754-0.785,3.647
				c0.657,0.722,1.661,1.298,3.019,1.733c1.357,0.434,2.581,0.652,3.677,0.652c1.421,0,2.736-0.215,3.952-0.636
				s2.299-1.043,3.238-1.863c0.94-0.823,1.669-1.81,2.186-2.967c0.516-1.159,0.771-2.453,0.771-3.898
				C270.179,201.053,269.628,199.59,268.524,198.621z"/>
		</g>
	</g>
	<path fill="none" d="M134.106,153.901l-2.085,0.877l-1.205,1.534l-1.421,1.859v0.987l-0.768,2.3l-2.17,0.173l-0.202,1.101
		c0,0-0.3,0.301-0.523,0.431c-0.222,0.128,0.097,0.732,0.223,1.033c0.127,0.301-0.088,1.032-0.223,1.166
		c-0.116,0.107,0.056,0.671,0.034,0.924c1.547,0.618,3.138,1.167,4.778,1.628c0.904,0.254,1.808,0.47,2.713,0.666l0.437-4.73
		c0.272-1.992,0.628-4.232,1.082-6.654l0.343-3.693L134.106,153.901z"/>
	<path fill="#077CA5" d="M134.817,170.998l0.001-0.009c-0.215-0.037-0.429-0.078-0.644-0.118
		C134.389,170.911,134.603,170.961,134.817,170.998z"/>
	<path fill="#6D9632" d="M133.063,170.669c0.367,0.076,0.741,0.135,1.111,0.202c-0.37-0.068-0.74-0.141-1.109-0.218L133.063,170.669
		z"/>
	<path fill="none" d="M134.775,157.195l0.343-3.693l-1.012,0.399l-2.085,0.877l-1.205,1.534l-1.421,1.859v0.987l-0.768,2.3
		l-2.17,0.173l-0.202,1.101c0,0-0.3,0.301-0.523,0.431c-0.222,0.128,0.097,0.732,0.223,1.033c0.127,0.301-0.088,1.032-0.223,1.166
		c-0.116,0.107,0.056,0.671,0.034,0.924c1.547,0.618,3.138,1.167,4.778,1.628c0.904,0.254,1.808,0.47,2.713,0.666l0.437-4.73
		C133.965,161.857,134.321,159.617,134.775,157.195z"/>
	<g>
		<path fill="#077CA5" d="M168.415,105.449c-0.167,0.239-0.332,0.479-0.498,0.723C168.082,105.927,168.249,105.689,168.415,105.449z
			"/>
		<polygon fill="#6D9632" points="207.442,71.604 195.757,69.835 193.415,71.193 202.848,74.272 		"/>
		<g>
			<path fill="#077CA5" d="M100.417,113.81l0.869,2.396l-0.509,2.192l0.219,1.078l0.436,1.022l0.074,0.654l0.148,1.227l0.651,0.873
				l1.669,0.729l0.512,1.237l1.814,1.156h0.795l0.736,1.022l0.357,0.406v-1.573c0,0,0.29-0.58,0-0.866
				c-0.29-0.29-1.018-1.598-1.018-1.888c0-0.293,0.219-2.252,0.219-2.252l-0.293-1.018l-0.067-2.178l1.293-2.185l1.029-0.071
				l0.654,0.732c0,0-0.508,0.576,0,0.65c0.506,0.075,2.034-0.799,2.034-1.018c0-0.219,0-1.884,0-1.884l1.742-1.531
				c0,0,0.509-0.873,0.58-1.085c0.074-0.219,1.237-2.114,1.237-2.114l2.762-1.739l2.616-0.655l1.304-0.148
				c0,0,0.365-1.156,0.365-1.379c0-0.212,0.071-2.252,0-2.252c-0.074,0,2.686-0.428,2.686-0.428s0.651-1.46,0.438-1.828
				c-0.223-0.357-2.616-2.825-2.616-2.825l-1.234-1.743l-1.601-2.33l-1.019,1.892l-1.311,0.654c0,0-0.138,0.293-0.138,0.725
				c0,0.438-0.219,1.092-0.219,1.092l-0.579,1.16l-0.875,2.178l-0.509-0.499l-0.87-0.661c0,0-0.509-1.378-0.509-1.591
				c0-0.226-0.145-1.679-0.066-1.891c0.066-0.22,1.665-1.817,1.665-1.817l0.873-1.166l0.505-0.874l1.602-1.379l1.156-0.576
				l1.526,0.506l0.51-1.668h0.438l0.869,0.94l-0.724,1.675l1.743,0.941l1.421-1.093c0,0,0.262-1.082,0-1.449
				c-0.262-0.357-0.696-0.438-0.915-1.014c-0.213-0.583-0.58-1.531-0.58-1.531l0.074-1.007l1.538-0.802h2.088l0.512,0.725h1.524
				l0.729,0.078l-0.443,1.955l0.443,0.778l-1.599,2.125l0.679,1.064l3.006,2.524c0,0,0.968-0.275,1.156-1.159
				c0.195-0.877,1.456-2.715,1.456-2.715l0.579-0.293c0,0,2.228,0.679,2.228,0.386c0-0.283,0.678-1.45,0.778-1.835
				c0.092-0.385,0.58-2.029,0.58-2.029s0.869-0.103,0.869-1.601c0-1.502,0-1.983,0-2.277s-2.037-1.067-2.227-1.358
				c-0.194-0.293-1.548-0.897-1.937-1.032c-0.385-0.128-3.585,0-3.585,0s-2.804-0.251-3.097,0c-0.29,0.261-0.1,0.099-1.354-0.113
				c-1.266-0.205-3.199-0.332-3.778,0.113c-0.58,0.452-2.614,1.997-3.006,1.997c-0.386,0-3.192,0.778-3.192,0.778
				s-0.583,0.19-1.315,0.449c-4.549,3.093-8.491,6.979-11.711,11.433c-0.404,0.559-0.813,1.113-1.196,1.69
				c-0.19,0.148-0.353,0.296-0.353,0.371c0,0.032-0.007,0.145-0.011,0.229c-0.031,0.499-0.117,1.694,0.011,1.874
				c0.142,0.226-0.063,1.605-0.063,1.605l-0.3,0.58c0,0-0.654,0.654-0.803,0.87c-0.142,0.223-0.721,1.089-0.937,1.312
				c-0.222,0.215-0.438,0.94-0.438,0.94l-0.87,1.096c0,0-0.438,2.902-0.438,3.122s0.365,2.104,0.365,2.104L100.417,113.81z"/>
			<polygon fill="#077CA5" points="151.21,97.52 150.337,98.484 150.337,99.45 151.983,99.45 152.464,98.484 153.246,97.52 
				152.464,97.52 			"/>
			<path fill="#077CA5" d="M153.434,85.507h-0.48l1.254,1.258v0.385c0,0-0.095,1.453,0.488,1.258
				c0.583-0.191,2.036-0.771,2.036-0.771v-1.068l-1.262-1.063H153.434z"/>
			<path fill="#077CA5" d="M190.383,124.401c0-0.548-0.061-1.078-0.078-1.623h-0.66v0.955l-0.892,0.668h-0.749
				c-0.082,0.453,0,1.057,0,1.057l-0.039,0.862v0.863l-0.565,0.516c0,0-0.428,0.594,0,1.071c0.435,0.481,0.435-0.208,0.435,0.481
				c0,0.689-0.089,2.067-0.089,2.067s0.347-0.173,0,0.686c-0.346,0.866-1.456,1.983-1.632,2.333c-0.178,0.343-0.17,0.686,0,1.117
				c0.168,0.432,0.6,0.693,0.6,0.693s0.432,0.47,0.517,0.834c0.085,0.361,1.354,0.283,0.986,1.545
				C189.619,134.066,190.383,129.322,190.383,124.401z"/>
			<path fill="#077CA5" d="M185.533,128.805c-0.198-0.293-1.168-2.227-1.168-2.227s-2.517-1.934-2.706-2.329
				c-0.199-0.382-1.168-2.479-1.168-2.479s-1.449-2.071-1.735-2.167c-0.297-0.099-2.62-0.771-2.62-0.771h-2.128h-1.163h-3.101
				l-1.063-1.259c0,0,0.576-0.689-0.386-0.689c-0.787,0-2.445,0-3.207,0c-2.779,5.599-5.256,12.077-7.139,19.525l1.338,1.403h1.648
				l4.55-0.488c0,0,2.517-1.255,2.612-0.679c0.095,0.583,1.159,2.62,1.159,2.62l1.07,2.712v2.223c0,0,0.195,1.262,0,1.743
				c-0.194,0.483-0.388,1.456-0.388,2.039c0,0.576-0.195,1.357-0.195,1.732c0,0.396,0.85,1.556,0.668,1.849
				c-0.183,0.291-0.473,1.935-0.767,2.224c-0.282,0.29-0.096,2.231,0.099,2.712c0.195,0.492,1.26,0.58,1.26,0.58l2.226-1.259
				l1.259-2.033l2.136-1.354c0,0,0.964-2.812,1.063-3.196c0.093-0.386,1.259-3.386,1.259-3.386l2.514-2.91
				c0,0,1.552-3.645,1.849-3.521c0.283,0.135,1.641-4.708,1.641-4.708s1.164-2.033,1.164-2.563
				C186.113,131.616,185.724,129.092,185.533,128.805z"/>
			<path fill="#077CA5" d="M164.392,99.466c-0.502-0.057-1.058-0.181-1.058-0.181l-1.328,1.188l-1.061,1.591l0.23,0.446
				C162.207,101.47,163.283,100.458,164.392,99.466z"/>
			<path fill="#077CA5" d="M163.543,95.52c0.081,0.294,0.718,1,1.637,1.93c0.348,0.349,0.445,0.669,0.429,0.95
				c3.193-2.732,6.695-5.252,10.54-7.488c-1.492-1.48-3.073-2.873-4.757-4.145l0.929,0.898l-0.063,1.159l-0.65,0.449l-2.461-0.335
				l-4.172-1.68c0,0-1.05-0.265-1.032,1.103c0.021,1.358-0.456,1.234-0.867,2.472c-0.409,1.244-0.918,1.697-0.942,2.089
				c-0.021,0.396-0.082,1.442-0.008,1.934C162.196,95.344,163.462,95.22,163.543,95.52z"/>
			<path fill="#077CA5" d="M170.844,107.503l1.647-0.884l2.739,2.974c0,0,0.198,1.757,0.143,2.718
				c-0.054,0.969,2.029,1.86,2.029,1.86l2.326,0.134c0,0,1.278,1.234,1.649,1.644c0.361,0.406,1.063,1.807,1.68,2.902
				c0.616,1.107,1.761,1.46,2.348,1.393c0.584-0.06-0.789-1.499-0.756-1.976c0.023-0.487,0.141-0.965,0.155-1.251
				c0.021-0.296,0.862-1.406,0.862-1.406s1.089,1.318,1.166,1.615c0.085,0.297,0.781,5.087,0.863,5.476
				c0.07,0.393,0.912-0.728,0.778-1.888c-0.128-1.177,0.215-2.029,0.134-2.326c-0.078-0.297,0.07-1.262,0.141-2.51
				c0.068-1.263-0.48-1.874-0.516-2.944c-0.042-1.072-0.243-0.789-0.374-2.058c-0.121-1.262-0.552-2.16-0.8-2.955
				c-0.099-0.318-0.092-0.689-0.056-1.057c-1.476-3.68-3.412-7.116-5.721-10.266c-0.096-0.138-0.198-0.272-0.301-0.403
				c-0.204-0.273-0.43-0.527-0.64-0.795c-3.164,3.125-6.563,7.085-9.831,11.985L170.844,107.503z"/>
			<path fill="#077CA5" d="M144.14,83.499v-1.732v-1.206l-0.634-0.875l-0.016-0.197l1.509-0.483c0,0,0.692-0.254,0.95-0.343
				c0.201-0.067,0.598-0.771,0.774-1.093c-1.11-0.074-2.212-0.169-3.34-0.169c-0.022,0-0.044,0.001-0.066,0.001l-0.306-3.703
				l2.916,1.552v-1.608l-2.351-2.012l0.389-9.071l7.834,3.051v-1.962l-7.699-5.094l0.081-2.23c0-0.863-0.696-2.563-1.559-2.563
				c-0.854,0-1.552,1.7-1.552,2.563l0.039,2.216l-7.342,5.108v1.962l7.427-3.029l0.216,9.213l-2.037,1.849v1.608l3.172-1.711
				l-0.361,3.885c-4.629,0.119-9.088,0.917-13.292,2.281l1.028,0.767h2.242c0,0,0.428,0.432,0.859,0
				c0.432-0.431,0.432-0.431,0.432-0.431h0.43l0.516,0.622h0.778c0,0,0.69-0.067,0.86,0c0.174,0.067,0.463,0,0.463,0l0.919,0.669
				l0.427,0.519l1.556,0.601l0.428-1.12l0.516-0.517l0.948,0.605c0,0,0.151,1.113,0.383,1.472l-5.319,57.263
				c-0.755-0.118-2.439-0.377-2.693-0.377c-0.329,0-1.538-0.329-1.971-1.205c-0.436-0.881-1.312-2.305-1.426-2.74
				c-0.109-0.435,0.114-0.658-0.328-0.986c-0.433-0.332-3.179-1.534-3.179-1.534s-1.75-0.987-2.4-1.641
				c-0.661-0.657-3.178-1.707-3.178-1.707s-1.535,0.258-1.863,0c-0.326-0.266-2.302,0.258-2.736,0
				c-0.438-0.266-1.647-0.478-1.863-0.813c-0.219-0.333-1.428-0.382-1.428-0.382l-0.968,0.82l1.082,3.723c0,0.329,0,2.188,0,2.188
				l0.438,1.754l-0.438,0.438l-0.986,0.767v1.859c0,0-0.219,2.63,0,2.962c0.223,0.326,2.301,1.753,2.301,1.753l1.965,1.202
				c0,0,0.661,0.654,0.774,0.979c0.106,0.332,0.874,1.533,0.874,1.866s-0.113,0.878,0,1.425c0.106,0.548,2.408,3.062,2.408,3.062
				s0.986-0.213,0,0.665c-0.984,0.869-1.093,1.526-1.093,2.078c0,0.549,0,1.641,0,2.303c0,0.648,1.535,2.184,1.535,2.184
				s0.877,3.065,0.877,3.729c0,0.041,0.029,0.07,0.042,0.106c-19.383-9.757-29.898-31.979-24.304-53.678
				c-0.1,0.333-0.233,0.647-0.326,0.979c-7.03,24.986,7.527,50.944,32.51,57.977c1.025,0.288,2.054,0.525,3.083,0.74l0.191-2.073
				c-0.905-0.196-1.809-0.412-2.713-0.666c-1.64-0.461-3.231-1.01-4.778-1.628c0.022-0.253-0.15-0.816-0.034-0.924
				c0.135-0.134,0.35-0.865,0.223-1.166c-0.126-0.301-0.445-0.905-0.223-1.033c0.223-0.13,0.523-0.431,0.523-0.431l0.202-1.101
				l2.17-0.173l0.768-2.3v-0.987l1.421-1.859l1.205-1.534l2.085-0.877l1.012-0.399l-0.343,3.693
				c1.852-9.873,5.407-22.861,12.21-35.368l-3.168-38.372C144.01,83.483,144.14,83.499,144.14,83.499z"/>
		</g>
		<path fill="#6D9632" d="M217.207,70.168c-0.6-1.029-3.471-1.492-5.683-0.208l-2.617,1.595l-4.769,2.891l-12.462,7.608l-3.62-1.138
			l-1.923,1.11l4.167,2.541c-5.002,1.634-9.557,3.696-13.723,6.089c-0.146,0.083-0.285,0.173-0.43,0.258
			c-3.845,2.235-7.347,4.755-10.54,7.488c-0.411,0.352-0.816,0.707-1.217,1.066c-1.108,0.991-2.185,2.003-3.216,3.043
			c-5.758,5.803-10.352,12.313-14.014,18.982c-0.062,0.112-0.116,0.224-0.177,0.336c-6.803,12.506-10.358,25.495-12.21,35.368
			c-0.454,2.422-0.81,4.662-1.082,6.654l-0.437,4.73l-0.191,2.073c0.37,0.077,0.74,0.149,1.109,0.218
			c0.215,0.04,0.429,0.081,0.644,0.118c2.601,0.442,5.269,0.69,7.999,0.69c2.804,0,5.543-0.29,8.22-0.76
			c0.027-0.008,0.07-0.008,0.105-0.015c-0.787-30.434,7.573-51.205,16.774-64.733c0.166-0.244,0.331-0.484,0.498-0.723
			c3.547-5.099,7.195-9.142,10.475-12.249c6.158-5.843,11.007-8.417,11.418-8.629l0.075,0.046c0.007,0.021,0.015,0.05,0.035,0.081
			c0.015,0.032,0.043,0.032,0.071,0.067l-0.46,4.705l1.913-1.113l1.424-3.832l12.72-6.784l-0.353,13.02l2.347-1.361l2.885-14.275
			l2.715-1.449C214.7,73.081,217.799,71.19,217.207,70.168z"/>
	</g>
</g>
</svg>
