<svg xmlns="http://www.w3.org/2000/svg" xmlns:xlink="http://www.w3.org/1999/xlink" width="500" zoomAndPan="magnify" viewBox="0 0 375 374.999991" height="500" preserveAspectRatio="xMidYMid meet" version="1.2"><defs><clipPath id="3852b78bc6"><path d="M 86 99.652344 L 132 99.652344 L 132 164 L 86 164 Z M 86 99.652344 "/></clipPath><clipPath id="ff794b404a"><path d="M 64.648438 118 L 121 118 L 121 178 L 64.648438 178 Z M 64.648438 118 "/></clipPath><clipPath id="c57dc3a494"><path d="M 81 150 L 211.648438 150 L 211.648438 243.652344 L 81 243.652344 Z M 81 150 "/></clipPath><clipPath id="cfaee104bb"><path d="M 0.121094 2 L 7 2 L 7 9 L 0.121094 9 Z M 0.121094 2 "/></clipPath><clipPath id="26561ee887"><rect x="0" width="157" y="0" height="12"/></clipPath></defs><g id="7f567988f9"><rect x="0" width="375" y="0" height="374.999991" style="fill:#ffffff;fill-opacity:1;stroke:none;"/><rect x="0" width="375" y="0" height="374.999991" style="fill:#ffffff;fill-opacity:1;stroke:none;"/><path style=" stroke:none;fill-rule:nonzero;fill:#0071bc;fill-opacity:1;" d="M 140.355469 134.242188 C 136.960938 133.929688 133.808594 133.40625 131.484375 132.765625 C 129.957031 132.347656 128.851562 131.898438 128.128906 131.398438 L 129.050781 136.765625 C 129.894531 140.78125 133.4375 139.453125 134.75 140.675781 C 135.6875 141.546875 135.582031 142.523438 135.753906 143.050781 C 135.925781 143.578125 136.339844 144.183594 137.066406 144.25 L 138.113281 144.347656 L 139.433594 144.472656 L 140.753906 144.59375 L 141.800781 144.6875 C 142.53125 144.753906 143.046875 144.234375 143.308594 143.75 C 143.574219 143.261719 143.652344 142.28125 144.730469 141.597656 C 146.242188 140.636719 149.484375 142.589844 151.042969 138.796875 L 152.953125 133.613281 C 150.191406 134.941406 143.582031 134.539062 140.355469 134.242188 Z M 140.355469 134.242188 "/><path style=" stroke:none;fill-rule:nonzero;fill:#0071bc;fill-opacity:1;" d="M 140.496094 132.722656 C 148.433594 133.457031 152.324219 132.636719 152.691406 132.027344 C 154.382812 126.59375 155.992188 121.921875 161.472656 113.785156 L 155.699219 113.25 C 152.574219 118.511719 150.90625 123.46875 149.664062 127.667969 C 150.199219 123.414062 150.988281 118.574219 153.183594 113.015625 L 142.414062 112.011719 L 139.378906 111.730469 L 138.328125 121.101562 L 138.097656 111.609375 L 130.742188 110.925781 C 131.824219 115.257812 132.191406 119.140625 132.105469 122.574219 C 131.664062 119.234375 131.097656 115.101562 129.558594 110.816406 L 123.347656 110.238281 C 127.253906 119.261719 127.972656 124.15625 128.644531 129.820312 C 128.929688 130.492188 132.605469 131.996094 140.496094 132.722656 Z M 140.496094 132.722656 "/><path style=" stroke:none;fill-rule:nonzero;fill:#0071bc;fill-opacity:1;" d="M 141.671875 146.226562 L 140.765625 156.035156 C 139.078125 156.457031 137.417969 156.90625 135.792969 157.378906 L 136.863281 145.777344 Z M 141.671875 146.226562 "/><g clip-rule="nonzero" clip-path="url(#3852b78bc6)"><path style=" stroke:none;fill-rule:nonzero;fill:#0071bc;fill-opacity:1;" d="M 119.929688 109.347656 L 127.117188 107.34375 C 129.328125 106.75 131.113281 105.109375 131.890625 102.953125 L 131.582031 102.71875 L 87.949219 114.554688 L 87.800781 114.910156 C 89.546875 116.394531 91.90625 116.925781 94.117188 116.335938 L 101.304688 114.332031 C 103.800781 113.664062 106.550781 114.332031 108.507812 116.3125 C 109.460938 117.277344 110.070312 118.527344 110.417969 119.839844 L 116.109375 141.253906 C 116.960938 144.46875 117.535156 147.796875 117.28125 151.113281 C 117.203125 152.105469 117.285156 153.113281 117.546875 154.105469 L 119.789062 162.539062 L 119.972656 163.226562 C 119.988281 163.214844 120.003906 163.210938 120.019531 163.203125 C 122.484375 162.074219 125.050781 161.015625 127.71875 160.03125 L 125.578125 151.972656 C 125.316406 150.980469 124.886719 150.0625 124.328125 149.238281 C 122.457031 146.488281 121.296875 143.308594 120.441406 140.089844 L 114.753906 118.671875 C 114.40625 117.363281 114.320312 115.972656 114.667969 114.660156 C 115.386719 111.96875 117.433594 110.015625 119.929688 109.347656 Z M 131.550781 101.371094 L 131.25 100.234375 L 131.152344 99.875 C 131.117188 99.746094 130.984375 99.667969 130.855469 99.703125 L 130.226562 99.871094 L 87.789062 111.390625 L 87.085938 111.578125 C 86.957031 111.609375 86.878906 111.742188 86.914062 111.875 L 87.011719 112.234375 L 87.3125 113.371094 C 87.347656 113.503906 87.480469 113.578125 87.609375 113.542969 L 131.378906 101.671875 C 131.507812 101.636719 131.585938 101.503906 131.550781 101.371094 Z M 131.550781 101.371094 "/></g><g clip-rule="nonzero" clip-path="url(#ff794b404a)"><path style=" stroke:none;fill-rule:nonzero;fill:#0071bc;fill-opacity:1;" d="M 70.273438 128.765625 L 68.265625 129 L 68.359375 129.78125 L 70.367188 129.546875 Z M 70.789062 130.640625 L 68.855469 131.089844 L 69.03125 131.859375 L 70.96875 131.410156 Z M 71.265625 132.539062 L 69.382812 133.207031 L 69.644531 133.949219 L 71.53125 133.28125 Z M 72.46875 134.246094 L 70.742188 135.128906 L 71.101562 135.828125 L 72.824219 134.949219 Z M 68.519531 126.730469 L 68.519531 127.515625 L 70.507812 127.523438 L 70.507812 126.734375 Z M 69.363281 135.835938 L 67.636719 136.71875 L 67.992188 137.421875 L 69.71875 136.539062 Z M 64.945312 126.71875 L 64.945312 127.503906 L 66.929688 127.511719 L 66.929688 126.726562 Z M 66.660156 129.1875 L 64.648438 129.421875 L 64.738281 130.203125 L 66.75 129.96875 Z M 67.308594 131.449219 L 65.375 131.898438 L 65.550781 132.664062 L 67.484375 132.21875 Z M 73.890625 128.34375 L 71.882812 128.578125 L 71.976562 129.359375 L 73.984375 129.125 Z M 67.878906 133.742188 L 65.996094 134.410156 L 66.257812 135.152344 L 68.140625 134.484375 Z M 77.832031 131.5 L 76.957031 131.949219 L 77.3125 132.648438 L 78.1875 132.203125 Z M 79.890625 126.207031 L 78.433594 126.632812 C 78.089844 126.730469 77.890625 127.089844 77.988281 127.4375 L 78.988281 130.890625 C 79.085938 131.234375 79.449219 131.433594 79.792969 131.332031 L 81.25 130.910156 Z M 75.671875 126.753906 L 75.671875 127.539062 L 76.652344 127.542969 L 76.652344 126.753906 Z M 74.273438 129.832031 L 72.339844 130.285156 L 72.515625 131.050781 L 74.453125 130.601562 Z M 119.789062 162.539062 C 114.792969 148.550781 105.710938 141.613281 104.554688 137.617188 L 104.824219 137.539062 C 105.203125 137.429688 105.421875 137.03125 105.3125 136.652344 L 103.96875 132.003906 C 103.855469 131.621094 103.460938 131.402344 103.085938 131.515625 L 100.460938 132.277344 L 94.335938 134.058594 C 93.957031 134.167969 93.742188 134.566406 93.851562 134.945312 L 95.195312 139.597656 C 95.304688 139.976562 95.699219 140.195312 96.078125 140.082031 L 96.625 139.925781 L 97.703125 142.535156 C 99.113281 147.414062 95.101562 150.792969 94.515625 151.433594 C 90.523438 155.8125 93.109375 160.835938 94.800781 166.683594 L 98.046875 177.921875 C 103.628906 172.285156 111.09375 167.296875 119.972656 163.226562 C 119.988281 163.214844 120.003906 163.210938 120.019531 163.203125 C 119.945312 162.980469 119.867188 162.757812 119.789062 162.539062 Z M 103.742188 119.898438 L 102.238281 119.207031 C 100.082031 118.214844 97.605469 118.207031 95.445312 119.1875 L 81.269531 125.804688 L 82.628906 130.507812 C 83.957031 130.039062 85.285156 129.691406 86.554688 129.496094 C 88.269531 131.355469 88.34375 137.308594 87.398438 140.277344 C 87.339844 140.460938 87.628906 140.5625 87.738281 140.402344 C 88.96875 138.640625 90.6875 136.105469 90.78125 131.867188 C 91.820312 132 92.804688 131.894531 93.742188 131.621094 C 93.921875 131.925781 94.097656 132.234375 94.207031 132.609375 L 102.148438 130.296875 L 101.066406 126.546875 C 100.375 124.15625 101.445312 121.605469 103.636719 120.433594 C 103.949219 120.285156 104.125 120.042969 103.742188 119.898438 Z M 75.574219 132.65625 L 73.847656 133.539062 L 74.207031 134.242188 L 75.933594 133.355469 Z M 77.085938 130.46875 L 76.160156 130.796875 L 76.421875 131.539062 L 77.347656 131.210938 Z M 74.652344 131.332031 L 72.773438 132 L 73.035156 132.746094 L 74.914062 132.074219 Z M 76.777344 129.253906 L 75.820312 129.472656 L 76 130.242188 L 76.957031 130.019531 Z M 72.09375 126.738281 L 72.09375 127.527344 L 74.082031 127.535156 L 74.082031 126.746094 Z M 76.472656 128.039062 L 75.5 128.15625 L 75.589844 128.9375 L 76.566406 128.820312 Z M 76.472656 128.039062 "/></g><g clip-rule="nonzero" clip-path="url(#c57dc3a494)"><path style=" stroke:none;fill-rule:nonzero;fill:#90cb20;fill-opacity:1;" d="M 91.011719 203.550781 C 91.011719 175.566406 131.96875 152.878906 182.492188 152.878906 C 192.683594 152.878906 202.488281 153.804688 211.648438 155.507812 C 199.785156 152.371094 186.492188 150.609375 172.453125 150.609375 C 122.386719 150.609375 81.796875 172.976562 81.796875 200.5625 C 81.796875 218.914062 99.765625 234.957031 126.535156 243.640625 C 104.925781 234.371094 91.011719 219.859375 91.011719 203.550781 Z M 91.011719 203.550781 "/></g><g style="fill:#0071bc;fill-opacity:0.4;"><g transform="translate(114.638181, 201.74883)"><path style="stroke:none" d="M 24.984375 -23.765625 L 24.984375 0 L 19.453125 0 L 8.96875 -12.671875 L 8.96875 0 L 2.375 0 L 2.375 -23.765625 L 7.90625 -23.765625 L 18.40625 -11.109375 L 18.40625 -23.765625 Z M 24.984375 -23.765625 "/></g></g><g style="fill:#0071bc;fill-opacity:0.4;"><g transform="translate(139.420806, 201.74883)"><path style="stroke:none" d="M 9.921875 -18.703125 C 12.972656 -18.703125 15.300781 -18.003906 16.90625 -16.609375 C 18.507812 -15.222656 19.3125 -13.09375 19.3125 -10.21875 L 19.3125 0 L 13.3125 0 L 13.3125 -2.375 C 12.382812 -0.582031 10.570312 0.3125 7.875 0.3125 C 6.445312 0.3125 5.210938 0.0625 4.171875 -0.4375 C 3.128906 -0.9375 2.34375 -1.609375 1.8125 -2.453125 C 1.28125 -3.304688 1.015625 -4.273438 1.015625 -5.359375 C 1.015625 -7.109375 1.679688 -8.460938 3.015625 -9.421875 C 4.359375 -10.378906 6.421875 -10.859375 9.203125 -10.859375 L 12.875 -10.859375 C 12.757812 -12.804688 11.457031 -13.78125 8.96875 -13.78125 C 8.082031 -13.78125 7.1875 -13.640625 6.28125 -13.359375 C 5.375 -13.078125 4.601562 -12.6875 3.96875 -12.1875 L 1.796875 -16.5625 C 2.816406 -17.25 4.054688 -17.773438 5.515625 -18.140625 C 6.972656 -18.515625 8.441406 -18.703125 9.921875 -18.703125 Z M 9.671875 -3.765625 C 10.421875 -3.765625 11.078125 -3.945312 11.640625 -4.3125 C 12.210938 -4.675781 12.625 -5.207031 12.875 -5.90625 L 12.875 -7.5 L 10.078125 -7.5 C 8.203125 -7.5 7.265625 -6.878906 7.265625 -5.640625 C 7.265625 -5.066406 7.476562 -4.609375 7.90625 -4.265625 C 8.34375 -3.929688 8.929688 -3.765625 9.671875 -3.765625 Z M 9.671875 -3.765625 "/></g></g><g style="fill:#0071bc;fill-opacity:0.4;"><g transform="translate(158.160471, 201.74883)"><path style="stroke:none" d="M 20.875 -9.171875 C 20.875 -9.117188 20.84375 -8.585938 20.78125 -7.578125 L 7.40625 -7.578125 C 7.675781 -6.617188 8.203125 -5.882812 8.984375 -5.375 C 9.765625 -4.875 10.742188 -4.625 11.921875 -4.625 C 12.796875 -4.625 13.554688 -4.742188 14.203125 -4.984375 C 14.847656 -5.234375 15.5 -5.644531 16.15625 -6.21875 L 19.5625 -2.6875 C 17.769531 -0.6875 15.15625 0.3125 11.71875 0.3125 C 9.5625 0.3125 7.664062 -0.09375 6.03125 -0.90625 C 4.40625 -1.726562 3.144531 -2.863281 2.25 -4.3125 C 1.363281 -5.757812 0.921875 -7.398438 0.921875 -9.234375 C 0.921875 -11.046875 1.351562 -12.671875 2.21875 -14.109375 C 3.09375 -15.546875 4.300781 -16.671875 5.84375 -17.484375 C 7.382812 -18.296875 9.113281 -18.703125 11.03125 -18.703125 C 12.863281 -18.703125 14.523438 -18.320312 16.015625 -17.5625 C 17.515625 -16.8125 18.695312 -15.71875 19.5625 -14.28125 C 20.4375 -12.84375 20.875 -11.140625 20.875 -9.171875 Z M 11.0625 -14.125 C 10.070312 -14.125 9.242188 -13.835938 8.578125 -13.265625 C 7.910156 -12.703125 7.484375 -11.9375 7.296875 -10.96875 L 14.84375 -10.96875 C 14.65625 -11.9375 14.226562 -12.703125 13.5625 -13.265625 C 12.894531 -13.835938 12.0625 -14.125 11.0625 -14.125 Z M 11.0625 -14.125 "/></g></g><g style="fill:#0071bc;fill-opacity:0.4;"><g transform="translate(177.37542, 201.74883)"><path style="stroke:none" d="M 2.078125 -25.1875 L 8.515625 -25.1875 L 8.515625 0 L 2.078125 0 Z M 2.078125 -25.1875 "/></g></g><g style="fill:#0071bc;fill-opacity:0.4;"><g transform="translate(185.421063, 201.74883)"><path style="stroke:none" d="M 2.078125 -18.40625 L 8.515625 -18.40625 L 8.515625 0 L 2.078125 0 Z M 5.296875 -20.4375 C 4.117188 -20.4375 3.164062 -20.765625 2.4375 -21.421875 C 1.71875 -22.078125 1.359375 -22.894531 1.359375 -23.875 C 1.359375 -24.84375 1.71875 -25.65625 2.4375 -26.3125 C 3.164062 -26.96875 4.117188 -27.296875 5.296875 -27.296875 C 6.472656 -27.296875 7.421875 -26.984375 8.140625 -26.359375 C 8.867188 -25.742188 9.234375 -24.945312 9.234375 -23.96875 C 9.234375 -22.945312 8.867188 -22.101562 8.140625 -21.4375 C 7.421875 -20.769531 6.472656 -20.4375 5.296875 -20.4375 Z M 5.296875 -20.4375 "/></g></g><g style="fill:#0071bc;fill-opacity:0.4;"><g transform="translate(193.466705, 201.74883)"><path style="stroke:none" d="M 9.921875 -18.703125 C 12.972656 -18.703125 15.300781 -18.003906 16.90625 -16.609375 C 18.507812 -15.222656 19.3125 -13.09375 19.3125 -10.21875 L 19.3125 0 L 13.3125 0 L 13.3125 -2.375 C 12.382812 -0.582031 10.570312 0.3125 7.875 0.3125 C 6.445312 0.3125 5.210938 0.0625 4.171875 -0.4375 C 3.128906 -0.9375 2.34375 -1.609375 1.8125 -2.453125 C 1.28125 -3.304688 1.015625 -4.273438 1.015625 -5.359375 C 1.015625 -7.109375 1.679688 -8.460938 3.015625 -9.421875 C 4.359375 -10.378906 6.421875 -10.859375 9.203125 -10.859375 L 12.875 -10.859375 C 12.757812 -12.804688 11.457031 -13.78125 8.96875 -13.78125 C 8.082031 -13.78125 7.1875 -13.640625 6.28125 -13.359375 C 5.375 -13.078125 4.601562 -12.6875 3.96875 -12.1875 L 1.796875 -16.5625 C 2.816406 -17.25 4.054688 -17.773438 5.515625 -18.140625 C 6.972656 -18.515625 8.441406 -18.703125 9.921875 -18.703125 Z M 9.671875 -3.765625 C 10.421875 -3.765625 11.078125 -3.945312 11.640625 -4.3125 C 12.210938 -4.675781 12.625 -5.207031 12.875 -5.90625 L 12.875 -7.5 L 10.078125 -7.5 C 8.203125 -7.5 7.265625 -6.878906 7.265625 -5.640625 C 7.265625 -5.066406 7.476562 -4.609375 7.90625 -4.265625 C 8.34375 -3.929688 8.929688 -3.765625 9.671875 -3.765625 Z M 9.671875 -3.765625 "/></g></g><g style="fill:#0071bc;fill-opacity:0.4;"><g transform="translate(212.206369, 201.74883)"><path style="stroke:none" d="M 1.625 -12.15625 L 11.546875 -12.15625 L 11.546875 -7.203125 L 1.625 -7.203125 Z M 1.625 -12.15625 "/></g></g><g style="fill:#0071bc;fill-opacity:0.4;"><g transform="translate(222.798208, 201.74883)"><path style="stroke:none" d="M 24.984375 -23.765625 L 24.984375 0 L 19.453125 0 L 8.96875 -12.671875 L 8.96875 0 L 2.375 0 L 2.375 -23.765625 L 7.90625 -23.765625 L 18.40625 -11.109375 L 18.40625 -23.765625 Z M 24.984375 -23.765625 "/></g></g><g style="fill:#0071bc;fill-opacity:0.4;"><g transform="translate(247.580833, 201.74883)"><path style="stroke:none" d="M 20.875 -9.171875 C 20.875 -9.117188 20.84375 -8.585938 20.78125 -7.578125 L 7.40625 -7.578125 C 7.675781 -6.617188 8.203125 -5.882812 8.984375 -5.375 C 9.765625 -4.875 10.742188 -4.625 11.921875 -4.625 C 12.796875 -4.625 13.554688 -4.742188 14.203125 -4.984375 C 14.847656 -5.234375 15.5 -5.644531 16.15625 -6.21875 L 19.5625 -2.6875 C 17.769531 -0.6875 15.15625 0.3125 11.71875 0.3125 C 9.5625 0.3125 7.664062 -0.09375 6.03125 -0.90625 C 4.40625 -1.726562 3.144531 -2.863281 2.25 -4.3125 C 1.363281 -5.757812 0.921875 -7.398438 0.921875 -9.234375 C 0.921875 -11.046875 1.351562 -12.671875 2.21875 -14.109375 C 3.09375 -15.546875 4.300781 -16.671875 5.84375 -17.484375 C 7.382812 -18.296875 9.113281 -18.703125 11.03125 -18.703125 C 12.863281 -18.703125 14.523438 -18.320312 16.015625 -17.5625 C 17.515625 -16.8125 18.695312 -15.71875 19.5625 -14.28125 C 20.4375 -12.84375 20.875 -11.140625 20.875 -9.171875 Z M 11.0625 -14.125 C 10.070312 -14.125 9.242188 -13.835938 8.578125 -13.265625 C 7.910156 -12.703125 7.484375 -11.9375 7.296875 -10.96875 L 14.84375 -10.96875 C 14.65625 -11.9375 14.226562 -12.703125 13.5625 -13.265625 C 12.894531 -13.835938 12.0625 -14.125 11.0625 -14.125 Z M 11.0625 -14.125 "/></g></g><g style="fill:#0071bc;fill-opacity:0.4;"><g transform="translate(266.795782, 201.74883)"><path style="stroke:none" d="M 14.765625 -0.75 C 14.222656 -0.40625 13.5625 -0.144531 12.78125 0.03125 C 12 0.21875 11.164062 0.3125 10.28125 0.3125 C 7.882812 0.3125 6.039062 -0.273438 4.75 -1.453125 C 3.457031 -2.628906 2.8125 -4.382812 2.8125 -6.71875 L 2.8125 -12.90625 L 0.140625 -12.90625 L 0.140625 -17.71875 L 2.8125 -17.71875 L 2.8125 -22.515625 L 9.265625 -22.515625 L 9.265625 -17.71875 L 13.484375 -17.71875 L 13.484375 -12.90625 L 9.265625 -12.90625 L 9.265625 -6.796875 C 9.265625 -6.140625 9.441406 -5.625 9.796875 -5.25 C 10.148438 -4.875 10.617188 -4.6875 11.203125 -4.6875 C 11.953125 -4.6875 12.609375 -4.878906 13.171875 -5.265625 Z M 14.765625 -0.75 "/></g></g><g style="fill:#90cb20;fill-opacity:1;"><g transform="translate(114.638181, 201.74883)"><path style="stroke:none" d="M 24.984375 -23.765625 L 24.984375 0 L 19.453125 0 L 8.96875 -12.671875 L 8.96875 0 L 2.375 0 L 2.375 -23.765625 L 7.90625 -23.765625 L 18.40625 -11.109375 L 18.40625 -23.765625 Z M 24.984375 -23.765625 "/></g></g><g style="fill:#90cb20;fill-opacity:1;"><g transform="translate(139.420806, 201.74883)"><path style="stroke:none" d="M 9.921875 -18.703125 C 12.972656 -18.703125 15.300781 -18.003906 16.90625 -16.609375 C 18.507812 -15.222656 19.3125 -13.09375 19.3125 -10.21875 L 19.3125 0 L 13.3125 0 L 13.3125 -2.375 C 12.382812 -0.582031 10.570312 0.3125 7.875 0.3125 C 6.445312 0.3125 5.210938 0.0625 4.171875 -0.4375 C 3.128906 -0.9375 2.34375 -1.609375 1.8125 -2.453125 C 1.28125 -3.304688 1.015625 -4.273438 1.015625 -5.359375 C 1.015625 -7.109375 1.679688 -8.460938 3.015625 -9.421875 C 4.359375 -10.378906 6.421875 -10.859375 9.203125 -10.859375 L 12.875 -10.859375 C 12.757812 -12.804688 11.457031 -13.78125 8.96875 -13.78125 C 8.082031 -13.78125 7.1875 -13.640625 6.28125 -13.359375 C 5.375 -13.078125 4.601562 -12.6875 3.96875 -12.1875 L 1.796875 -16.5625 C 2.816406 -17.25 4.054688 -17.773438 5.515625 -18.140625 C 6.972656 -18.515625 8.441406 -18.703125 9.921875 -18.703125 Z M 9.671875 -3.765625 C 10.421875 -3.765625 11.078125 -3.945312 11.640625 -4.3125 C 12.210938 -4.675781 12.625 -5.207031 12.875 -5.90625 L 12.875 -7.5 L 10.078125 -7.5 C 8.203125 -7.5 7.265625 -6.878906 7.265625 -5.640625 C 7.265625 -5.066406 7.476562 -4.609375 7.90625 -4.265625 C 8.34375 -3.929688 8.929688 -3.765625 9.671875 -3.765625 Z M 9.671875 -3.765625 "/></g></g><g style="fill:#90cb20;fill-opacity:1;"><g transform="translate(158.160471, 201.74883)"><path style="stroke:none" d="M 20.875 -9.171875 C 20.875 -9.117188 20.84375 -8.585938 20.78125 -7.578125 L 7.40625 -7.578125 C 7.675781 -6.617188 8.203125 -5.882812 8.984375 -5.375 C 9.765625 -4.875 10.742188 -4.625 11.921875 -4.625 C 12.796875 -4.625 13.554688 -4.742188 14.203125 -4.984375 C 14.847656 -5.234375 15.5 -5.644531 16.15625 -6.21875 L 19.5625 -2.6875 C 17.769531 -0.6875 15.15625 0.3125 11.71875 0.3125 C 9.5625 0.3125 7.664062 -0.09375 6.03125 -0.90625 C 4.40625 -1.726562 3.144531 -2.863281 2.25 -4.3125 C 1.363281 -5.757812 0.921875 -7.398438 0.921875 -9.234375 C 0.921875 -11.046875 1.351562 -12.671875 2.21875 -14.109375 C 3.09375 -15.546875 4.300781 -16.671875 5.84375 -17.484375 C 7.382812 -18.296875 9.113281 -18.703125 11.03125 -18.703125 C 12.863281 -18.703125 14.523438 -18.320312 16.015625 -17.5625 C 17.515625 -16.8125 18.695312 -15.71875 19.5625 -14.28125 C 20.4375 -12.84375 20.875 -11.140625 20.875 -9.171875 Z M 11.0625 -14.125 C 10.070312 -14.125 9.242188 -13.835938 8.578125 -13.265625 C 7.910156 -12.703125 7.484375 -11.9375 7.296875 -10.96875 L 14.84375 -10.96875 C 14.65625 -11.9375 14.226562 -12.703125 13.5625 -13.265625 C 12.894531 -13.835938 12.0625 -14.125 11.0625 -14.125 Z M 11.0625 -14.125 "/></g></g><g style="fill:#90cb20;fill-opacity:1;"><g transform="translate(177.37542, 201.74883)"><path style="stroke:none" d="M 2.078125 -25.1875 L 8.515625 -25.1875 L 8.515625 0 L 2.078125 0 Z M 2.078125 -25.1875 "/></g></g><g style="fill:#90cb20;fill-opacity:1;"><g transform="translate(185.421063, 201.74883)"><path style="stroke:none" d="M 2.078125 -18.40625 L 8.515625 -18.40625 L 8.515625 0 L 2.078125 0 Z M 5.296875 -20.4375 C 4.117188 -20.4375 3.164062 -20.765625 2.4375 -21.421875 C 1.71875 -22.078125 1.359375 -22.894531 1.359375 -23.875 C 1.359375 -24.84375 1.71875 -25.65625 2.4375 -26.3125 C 3.164062 -26.96875 4.117188 -27.296875 5.296875 -27.296875 C 6.472656 -27.296875 7.421875 -26.984375 8.140625 -26.359375 C 8.867188 -25.742188 9.234375 -24.945312 9.234375 -23.96875 C 9.234375 -22.945312 8.867188 -22.101562 8.140625 -21.4375 C 7.421875 -20.769531 6.472656 -20.4375 5.296875 -20.4375 Z M 5.296875 -20.4375 "/></g></g><g style="fill:#90cb20;fill-opacity:1;"><g transform="translate(193.466705, 201.74883)"><path style="stroke:none" d="M 9.921875 -18.703125 C 12.972656 -18.703125 15.300781 -18.003906 16.90625 -16.609375 C 18.507812 -15.222656 19.3125 -13.09375 19.3125 -10.21875 L 19.3125 0 L 13.3125 0 L 13.3125 -2.375 C 12.382812 -0.582031 10.570312 0.3125 7.875 0.3125 C 6.445312 0.3125 5.210938 0.0625 4.171875 -0.4375 C 3.128906 -0.9375 2.34375 -1.609375 1.8125 -2.453125 C 1.28125 -3.304688 1.015625 -4.273438 1.015625 -5.359375 C 1.015625 -7.109375 1.679688 -8.460938 3.015625 -9.421875 C 4.359375 -10.378906 6.421875 -10.859375 9.203125 -10.859375 L 12.875 -10.859375 C 12.757812 -12.804688 11.457031 -13.78125 8.96875 -13.78125 C 8.082031 -13.78125 7.1875 -13.640625 6.28125 -13.359375 C 5.375 -13.078125 4.601562 -12.6875 3.96875 -12.1875 L 1.796875 -16.5625 C 2.816406 -17.25 4.054688 -17.773438 5.515625 -18.140625 C 6.972656 -18.515625 8.441406 -18.703125 9.921875 -18.703125 Z M 9.671875 -3.765625 C 10.421875 -3.765625 11.078125 -3.945312 11.640625 -4.3125 C 12.210938 -4.675781 12.625 -5.207031 12.875 -5.90625 L 12.875 -7.5 L 10.078125 -7.5 C 8.203125 -7.5 7.265625 -6.878906 7.265625 -5.640625 C 7.265625 -5.066406 7.476562 -4.609375 7.90625 -4.265625 C 8.34375 -3.929688 8.929688 -3.765625 9.671875 -3.765625 Z M 9.671875 -3.765625 "/></g></g><g style="fill:#90cb20;fill-opacity:1;"><g transform="translate(212.206369, 201.74883)"><path style="stroke:none" d="M 1.625 -12.15625 L 11.546875 -12.15625 L 11.546875 -7.203125 L 1.625 -7.203125 Z M 1.625 -12.15625 "/></g></g><g style="fill:#90cb20;fill-opacity:1;"><g transform="translate(222.798208, 201.74883)"><path style="stroke:none" d="M 24.984375 -23.765625 L 24.984375 0 L 19.453125 0 L 8.96875 -12.671875 L 8.96875 0 L 2.375 0 L 2.375 -23.765625 L 7.90625 -23.765625 L 18.40625 -11.109375 L 18.40625 -23.765625 Z M 24.984375 -23.765625 "/></g></g><g style="fill:#90cb20;fill-opacity:1;"><g transform="translate(247.580833, 201.74883)"><path style="stroke:none" d="M 20.875 -9.171875 C 20.875 -9.117188 20.84375 -8.585938 20.78125 -7.578125 L 7.40625 -7.578125 C 7.675781 -6.617188 8.203125 -5.882812 8.984375 -5.375 C 9.765625 -4.875 10.742188 -4.625 11.921875 -4.625 C 12.796875 -4.625 13.554688 -4.742188 14.203125 -4.984375 C 14.847656 -5.234375 15.5 -5.644531 16.15625 -6.21875 L 19.5625 -2.6875 C 17.769531 -0.6875 15.15625 0.3125 11.71875 0.3125 C 9.5625 0.3125 7.664062 -0.09375 6.03125 -0.90625 C 4.40625 -1.726562 3.144531 -2.863281 2.25 -4.3125 C 1.363281 -5.757812 0.921875 -7.398438 0.921875 -9.234375 C 0.921875 -11.046875 1.351562 -12.671875 2.21875 -14.109375 C 3.09375 -15.546875 4.300781 -16.671875 5.84375 -17.484375 C 7.382812 -18.296875 9.113281 -18.703125 11.03125 -18.703125 C 12.863281 -18.703125 14.523438 -18.320312 16.015625 -17.5625 C 17.515625 -16.8125 18.695312 -15.71875 19.5625 -14.28125 C 20.4375 -12.84375 20.875 -11.140625 20.875 -9.171875 Z M 11.0625 -14.125 C 10.070312 -14.125 9.242188 -13.835938 8.578125 -13.265625 C 7.910156 -12.703125 7.484375 -11.9375 7.296875 -10.96875 L 14.84375 -10.96875 C 14.65625 -11.9375 14.226562 -12.703125 13.5625 -13.265625 C 12.894531 -13.835938 12.0625 -14.125 11.0625 -14.125 Z M 11.0625 -14.125 "/></g></g><g style="fill:#90cb20;fill-opacity:1;"><g transform="translate(266.795782, 201.74883)"><path style="stroke:none" d="M 14.765625 -0.75 C 14.222656 -0.40625 13.5625 -0.144531 12.78125 0.03125 C 12 0.21875 11.164062 0.3125 10.28125 0.3125 C 7.882812 0.3125 6.039062 -0.273438 4.75 -1.453125 C 3.457031 -2.628906 2.8125 -4.382812 2.8125 -6.71875 L 2.8125 -12.90625 L 0.140625 -12.90625 L 0.140625 -17.71875 L 2.8125 -17.71875 L 2.8125 -22.515625 L 9.265625 -22.515625 L 9.265625 -17.71875 L 13.484375 -17.71875 L 13.484375 -12.90625 L 9.265625 -12.90625 L 9.265625 -6.796875 C 9.265625 -6.140625 9.441406 -5.625 9.796875 -5.25 C 10.148438 -4.875 10.617188 -4.6875 11.203125 -4.6875 C 11.953125 -4.6875 12.609375 -4.878906 13.171875 -5.265625 Z M 14.765625 -0.75 "/></g></g><g transform="matrix(1,0,0,1,123,209)"><g clip-path="url(#26561ee887)"><g clip-rule="nonzero" clip-path="url(#cfaee104bb)"><g style="fill:#0071bc;fill-opacity:1;"><g transform="translate(0.754943, 8.53301)"><path style="stroke:none" d="M 2 -5 L 0.03125 -5 L 0.03125 -6.15625 L 5.40625 -6.15625 L 5.40625 -5 L 3.4375 -5 L 3.4375 0 L 2 0 Z M 2 -5 "/></g></g></g><g style="fill:#0071bc;fill-opacity:1;"><g transform="translate(12.051762, 8.53301)"><path style="stroke:none" d="M 3.71875 0.109375 C 3.070312 0.109375 2.492188 -0.0234375 1.984375 -0.296875 C 1.472656 -0.578125 1.070312 -0.957031 0.78125 -1.4375 C 0.488281 -1.925781 0.34375 -2.472656 0.34375 -3.078125 C 0.34375 -3.679688 0.488281 -4.222656 0.78125 -4.703125 C 1.070312 -5.191406 1.472656 -5.570312 1.984375 -5.84375 C 2.492188 -6.125 3.070312 -6.265625 3.71875 -6.265625 C 4.351562 -6.265625 4.925781 -6.125 5.4375 -5.84375 C 5.945312 -5.570312 6.347656 -5.191406 6.640625 -4.703125 C 6.929688 -4.222656 7.078125 -3.679688 7.078125 -3.078125 C 7.078125 -2.472656 6.929688 -1.925781 6.640625 -1.4375 C 6.347656 -0.957031 5.945312 -0.578125 5.4375 -0.296875 C 4.925781 -0.0234375 4.351562 0.109375 3.71875 0.109375 Z M 3.71875 -1.109375 C 4.070312 -1.109375 4.394531 -1.191406 4.6875 -1.359375 C 4.988281 -1.523438 5.222656 -1.753906 5.390625 -2.046875 C 5.554688 -2.347656 5.640625 -2.691406 5.640625 -3.078125 C 5.640625 -3.460938 5.554688 -3.800781 5.390625 -4.09375 C 5.222656 -4.394531 4.988281 -4.628906 4.6875 -4.796875 C 4.394531 -4.960938 4.070312 -5.046875 3.71875 -5.046875 C 3.351562 -5.046875 3.019531 -4.960938 2.71875 -4.796875 C 2.425781 -4.628906 2.195312 -4.394531 2.03125 -4.09375 C 1.863281 -3.800781 1.78125 -3.460938 1.78125 -3.078125 C 1.78125 -2.691406 1.863281 -2.347656 2.03125 -2.046875 C 2.195312 -1.753906 2.425781 -1.523438 2.71875 -1.359375 C 3.019531 -1.191406 3.351562 -1.109375 3.71875 -1.109375 Z M 3.71875 -1.109375 "/></g></g><g style="fill:#0071bc;fill-opacity:1;"><g transform="translate(25.335425, 8.53301)"><path style="stroke:none" d="M 3.46875 0.109375 C 2.582031 0.109375 1.894531 -0.132812 1.40625 -0.625 C 0.914062 -1.113281 0.671875 -1.804688 0.671875 -2.703125 L 0.671875 -6.15625 L 2.109375 -6.15625 L 2.109375 -2.765625 C 2.109375 -1.660156 2.5625 -1.109375 3.46875 -1.109375 C 3.914062 -1.109375 4.253906 -1.238281 4.484375 -1.5 C 4.722656 -1.769531 4.84375 -2.191406 4.84375 -2.765625 L 4.84375 -6.15625 L 6.25 -6.15625 L 6.25 -2.703125 C 6.25 -1.804688 6.003906 -1.113281 5.515625 -0.625 C 5.023438 -0.132812 4.34375 0.109375 3.46875 0.109375 Z M 3.46875 0.109375 "/></g></g><g style="fill:#0071bc;fill-opacity:1;"><g transform="translate(38.126779, 8.53301)"><path style="stroke:none" d="M 2.75 0.109375 C 2.257812 0.109375 1.785156 0.0390625 1.328125 -0.09375 C 0.878906 -0.226562 0.519531 -0.398438 0.25 -0.609375 L 0.734375 -1.6875 C 0.992188 -1.488281 1.304688 -1.328125 1.671875 -1.203125 C 2.035156 -1.085938 2.398438 -1.03125 2.765625 -1.03125 C 3.171875 -1.03125 3.46875 -1.09375 3.65625 -1.21875 C 3.851562 -1.34375 3.953125 -1.503906 3.953125 -1.703125 C 3.953125 -1.847656 3.894531 -1.96875 3.78125 -2.0625 C 3.664062 -2.15625 3.515625 -2.234375 3.328125 -2.296875 C 3.148438 -2.359375 2.910156 -2.421875 2.609375 -2.484375 C 2.140625 -2.597656 1.753906 -2.707031 1.453125 -2.8125 C 1.160156 -2.925781 0.90625 -3.109375 0.6875 -3.359375 C 0.476562 -3.609375 0.375 -3.9375 0.375 -4.34375 C 0.375 -4.695312 0.46875 -5.019531 0.65625 -5.3125 C 0.851562 -5.601562 1.144531 -5.832031 1.53125 -6 C 1.925781 -6.175781 2.40625 -6.265625 2.96875 -6.265625 C 3.351562 -6.265625 3.734375 -6.21875 4.109375 -6.125 C 4.492188 -6.03125 4.828125 -5.894531 5.109375 -5.71875 L 4.65625 -4.640625 C 4.09375 -4.960938 3.523438 -5.125 2.953125 -5.125 C 2.554688 -5.125 2.257812 -5.054688 2.0625 -4.921875 C 1.875 -4.796875 1.78125 -4.628906 1.78125 -4.421875 C 1.78125 -4.203125 1.890625 -4.039062 2.109375 -3.9375 C 2.335938 -3.84375 2.675781 -3.742188 3.125 -3.640625 C 3.59375 -3.523438 3.972656 -3.410156 4.265625 -3.296875 C 4.566406 -3.191406 4.820312 -3.019531 5.03125 -2.78125 C 5.25 -2.539062 5.359375 -2.210938 5.359375 -1.796875 C 5.359375 -1.453125 5.257812 -1.132812 5.0625 -0.84375 C 4.875 -0.550781 4.582031 -0.316406 4.1875 -0.140625 C 3.789062 0.0234375 3.3125 0.109375 2.75 0.109375 Z M 2.75 0.109375 "/></g></g><g style="fill:#0071bc;fill-opacity:1;"><g transform="translate(49.599428, 8.53301)"><path style="stroke:none" d=""/></g></g><g style="fill:#0071bc;fill-opacity:1;"><g transform="translate(57.951157, 8.53301)"><path style="stroke:none" d="M 5.5 -1.140625 L 5.5 0 L 0.734375 0 L 0.734375 -6.15625 L 5.390625 -6.15625 L 5.390625 -5.015625 L 2.140625 -5.015625 L 2.140625 -3.671875 L 5 -3.671875 L 5 -2.5625 L 2.140625 -2.5625 L 2.140625 -1.140625 Z M 5.5 -1.140625 "/></g></g><g style="fill:#0071bc;fill-opacity:1;"><g transform="translate(69.713926, 8.53301)"><path style="stroke:none" d="M 6.375 -6.15625 L 6.375 0 L 5.203125 0 L 2.140625 -3.734375 L 2.140625 0 L 0.734375 0 L 0.734375 -6.15625 L 1.90625 -6.15625 L 4.96875 -2.421875 L 4.96875 -6.15625 Z M 6.375 -6.15625 "/></g></g><g style="fill:#0071bc;fill-opacity:1;"><g transform="translate(82.68111, 8.53301)"><path style="stroke:none" d="M 2.75 0.109375 C 2.257812 0.109375 1.785156 0.0390625 1.328125 -0.09375 C 0.878906 -0.226562 0.519531 -0.398438 0.25 -0.609375 L 0.734375 -1.6875 C 0.992188 -1.488281 1.304688 -1.328125 1.671875 -1.203125 C 2.035156 -1.085938 2.398438 -1.03125 2.765625 -1.03125 C 3.171875 -1.03125 3.46875 -1.09375 3.65625 -1.21875 C 3.851562 -1.34375 3.953125 -1.503906 3.953125 -1.703125 C 3.953125 -1.847656 3.894531 -1.96875 3.78125 -2.0625 C 3.664062 -2.15625 3.515625 -2.234375 3.328125 -2.296875 C 3.148438 -2.359375 2.910156 -2.421875 2.609375 -2.484375 C 2.140625 -2.597656 1.753906 -2.707031 1.453125 -2.8125 C 1.160156 -2.925781 0.90625 -3.109375 0.6875 -3.359375 C 0.476562 -3.609375 0.375 -3.9375 0.375 -4.34375 C 0.375 -4.695312 0.46875 -5.019531 0.65625 -5.3125 C 0.851562 -5.601562 1.144531 -5.832031 1.53125 -6 C 1.925781 -6.175781 2.40625 -6.265625 2.96875 -6.265625 C 3.351562 -6.265625 3.734375 -6.21875 4.109375 -6.125 C 4.492188 -6.03125 4.828125 -5.894531 5.109375 -5.71875 L 4.65625 -4.640625 C 4.09375 -4.960938 3.523438 -5.125 2.953125 -5.125 C 2.554688 -5.125 2.257812 -5.054688 2.0625 -4.921875 C 1.875 -4.796875 1.78125 -4.628906 1.78125 -4.421875 C 1.78125 -4.203125 1.890625 -4.039062 2.109375 -3.9375 C 2.335938 -3.84375 2.675781 -3.742188 3.125 -3.640625 C 3.59375 -3.523438 3.972656 -3.410156 4.265625 -3.296875 C 4.566406 -3.191406 4.820312 -3.019531 5.03125 -2.78125 C 5.25 -2.539062 5.359375 -2.210938 5.359375 -1.796875 C 5.359375 -1.453125 5.257812 -1.132812 5.0625 -0.84375 C 4.875 -0.550781 4.582031 -0.316406 4.1875 -0.140625 C 3.789062 0.0234375 3.3125 0.109375 2.75 0.109375 Z M 2.75 0.109375 "/></g></g><g style="fill:#0071bc;fill-opacity:1;"><g transform="translate(94.153759, 8.53301)"><path style="stroke:none" d="M 5.5 -1.140625 L 5.5 0 L 0.734375 0 L 0.734375 -6.15625 L 5.390625 -6.15625 L 5.390625 -5.015625 L 2.140625 -5.015625 L 2.140625 -3.671875 L 5 -3.671875 L 5 -2.5625 L 2.140625 -2.5625 L 2.140625 -1.140625 Z M 5.5 -1.140625 "/></g></g><g style="fill:#0071bc;fill-opacity:1;"><g transform="translate(105.916528, 8.53301)"><path style="stroke:none" d="M 6.328125 0 L 6.328125 -3.6875 L 4.515625 -0.65625 L 3.875 -0.65625 L 2.0625 -3.609375 L 2.0625 0 L 0.734375 0 L 0.734375 -6.15625 L 1.90625 -6.15625 L 4.21875 -2.328125 L 6.484375 -6.15625 L 7.65625 -6.15625 L 7.671875 0 Z M 6.328125 0 "/></g></g><g style="fill:#0071bc;fill-opacity:1;"><g transform="translate(120.176035, 8.53301)"><path style="stroke:none" d="M 5.25 -3.203125 C 5.601562 -3.085938 5.878906 -2.898438 6.078125 -2.640625 C 6.273438 -2.378906 6.375 -2.0625 6.375 -1.6875 C 6.375 -1.144531 6.164062 -0.726562 5.75 -0.4375 C 5.332031 -0.144531 4.722656 0 3.921875 0 L 0.734375 0 L 0.734375 -6.15625 L 3.734375 -6.15625 C 4.484375 -6.15625 5.054688 -6.007812 5.453125 -5.71875 C 5.859375 -5.4375 6.0625 -5.050781 6.0625 -4.5625 C 6.0625 -4.257812 5.988281 -3.988281 5.84375 -3.75 C 5.707031 -3.519531 5.507812 -3.335938 5.25 -3.203125 Z M 2.140625 -5.078125 L 2.140625 -3.640625 L 3.5625 -3.640625 C 3.914062 -3.640625 4.179688 -3.695312 4.359375 -3.8125 C 4.546875 -3.9375 4.640625 -4.117188 4.640625 -4.359375 C 4.640625 -4.597656 4.546875 -4.773438 4.359375 -4.890625 C 4.179688 -5.015625 3.914062 -5.078125 3.5625 -5.078125 Z M 3.8125 -1.078125 C 4.1875 -1.078125 4.46875 -1.132812 4.65625 -1.25 C 4.84375 -1.375 4.9375 -1.566406 4.9375 -1.828125 C 4.9375 -2.335938 4.5625 -2.59375 3.8125 -2.59375 L 2.140625 -2.59375 L 2.140625 -1.078125 Z M 3.8125 -1.078125 "/></g></g><g style="fill:#0071bc;fill-opacity:1;"><g transform="translate(132.765188, 8.53301)"><path style="stroke:none" d="M 0.734375 -6.15625 L 2.15625 -6.15625 L 2.15625 -1.15625 L 5.25 -1.15625 L 5.25 0 L 0.734375 0 Z M 0.734375 -6.15625 "/></g></g><g style="fill:#0071bc;fill-opacity:1;"><g transform="translate(143.938931, 8.53301)"><path style="stroke:none" d="M 5.5 -1.140625 L 5.5 0 L 0.734375 0 L 0.734375 -6.15625 L 5.390625 -6.15625 L 5.390625 -5.015625 L 2.140625 -5.015625 L 2.140625 -3.671875 L 5 -3.671875 L 5 -2.5625 L 2.140625 -2.5625 L 2.140625 -1.140625 Z M 5.5 -1.140625 "/></g></g></g></g></g></svg>